<?xml version="1.0" standalone="no"?>
<!DOCTYPE svg PUBLIC "-//W3C//DTD SVG 20010904//EN"
    "http://www.w3.org/TR/2001/REC-SVG-20010904/DTD/svg10.dtd">
<svg version="1.0" xmlns="http://www.w3.org/2000/svg"
     width="1080.000000pt" height="1080.000000pt" viewBox="0 0 1080.000000 1080.000000"
     preserveAspectRatio="xMidYMid meet">

    <g transform="translate(0.000000,1080.000000) scale(0.100000,-0.100000)"
       fill="#000000" stroke="none">
        <path d="M1936 6954 c-150 -33 -281 -109 -387 -222 -58 -62 -171 -238 -279
-437 -18 -33 -43 -76 -55 -95 -12 -19 -84 -143 -160 -275 -76 -132 -235 -406
-354 -610 -118 -203 -230 -404 -248 -446 -62 -144 -79 -309 -48 -461 18 -89
88 -234 148 -306 217 -262 590 -347 892 -203 103 49 191 115 252 188 46 55
383 621 383 643 0 21 16 8 41 -33 14 -23 88 -150 164 -282 174 -302 213 -354
321 -435 237 -178 573 -199 823 -53 131 77 261 225 316 360 32 80 55 198 55
286 0 96 -37 241 -85 338 -31 60 -294 521 -429 749 -18 30 -95 163 -171 295
-76 132 -182 314 -235 405 -54 91 -116 197 -138 235 -97 168 -266 300 -448
350 -87 23 -273 28 -358 9z m289 -215 c144 -40 274 -148 338 -279 67 -136 71
-287 13 -430 -12 -31 -105 -198 -206 -371 -101 -173 -203 -349 -228 -392 -24
-44 -48 -75 -53 -70 -12 12 -373 633 -434 748 -30 55 -61 127 -70 160 -67 259
85 534 345 622 73 25 225 31 295 12z m-988 -636 c-3 -10 -5 -2 -5 17 0 19 2
27 5 18 2 -10 2 -26 0 -35z m188 -188 c30 -67 83 -161 399 -705 75 -129 136
-240 136 -246 0 -12 -81 -155 -102 -182 -8 -9 -19 8 -42 65 -17 43 -115 222
-218 398 -102 176 -220 380 -262 453 l-76 133 57 100 c52 91 59 98 67 77 5
-13 24 -54 41 -93z m1451 6 l52 -92 -63 -107 c-393 -673 -515 -895 -515 -936
0 -35 -22 -11 -75 84 l-56 100 19 28 c17 24 290 493 461 793 37 64 76 142 86
173 11 31 24 55 29 53 5 -2 33 -45 62 -96z m-1704 -383 c19 -35 114 -198 210
-363 96 -165 189 -328 207 -362 111 -221 71 -468 -101 -629 -212 -198 -520
-193 -724 10 -117 117 -159 224 -152 390 6 151 -5 127 368 769 79 136 147 247
150 247 3 0 22 -28 42 -62z m2018 -154 c69 -119 162 -280 208 -358 148 -252
182 -339 182 -466 0 -190 -113 -376 -281 -460 -266 -135 -576 -34 -707 229
-73 146 -78 289 -14 439 16 37 109 204 207 372 98 168 198 340 222 383 24 42
47 77 51 77 4 0 63 -98 132 -216z"/>
        <path d="M7905 6168 c-32 -17 -76 -61 -91 -90 -20 -38 -18 -126 4 -167 9 -19
34 -48 55 -65 31 -25 49 -31 100 -34 55 -3 67 0 108 26 81 52 110 151 70 237
-21 46 -54 79 -94 94 -37 14 -126 14 -152 -1z"/>
        <path d="M6495 6088 c-3 -7 -4 -341 -3 -743 l3 -730 155 0 155 0 5 330 c4 297
7 334 24 365 48 90 119 134 217 135 56 0 73 -4 115 -30 30 -19 60 -49 79 -79
l30 -49 5 -336 5 -336 155 0 155 0 3 355 c1 216 -2 374 -8 403 -48 229 -283
393 -509 356 -77 -12 -139 -42 -211 -103 l-55 -45 -3 260 -2 259 -155 0 c-115
0 -157 -3 -160 -12z"/>
        <path d="M10166 5729 c-63 -15 -154 -69 -212 -127 l-54 -54 0 71 0 71 -160 0
-160 0 2 -537 3 -538 155 0 155 0 5 354 5 353 41 37 c79 70 245 105 365 78
l36 -9 26 124 c15 68 27 131 27 140 0 30 -156 54 -234 37z"/>
        <path d="M4595 5673 c3 -10 39 -124 79 -253 206 -662 248 -795 252 -802 6 -10
345 -10 360 0 6 4 18 36 28 72 87 340 144 541 151 541 6 0 19 -37 31 -83 74
-286 137 -515 146 -525 8 -10 57 -13 184 -13 171 0 175 0 184 23 5 12 42 126
81 252 39 127 109 352 155 500 47 149 87 278 90 288 5 16 -5 17 -152 15 l-158
-3 -32 -115 c-17 -63 -60 -216 -94 -340 -34 -124 -65 -229 -69 -233 -7 -7 -24
52 -107 358 -13 50 -39 144 -57 210 l-32 120 -170 0 -169 0 -8 -30 c-16 -58
-101 -371 -138 -513 -21 -79 -41 -146 -44 -149 -7 -8 -9 -3 -57 172 -22 83
-59 213 -80 290 -22 77 -45 161 -51 188 l-11 47 -160 0 c-147 0 -159 -1 -152
-17z"/>
        <path d="M7827 5683 c-4 -3 -7 -244 -7 -534 0 -471 2 -528 16 -533 9 -3 81 -6
160 -6 l144 0 0 540 0 540 -153 0 c-85 0 -157 -3 -160 -7z"/>
        <path d="M8380 5550 l0 -140 240 0 c132 0 240 -4 240 -8 0 -5 -115 -150 -255
-323 l-256 -314 3 -75 3 -75 500 0 500 0 3 142 3 143 -262 2 -261 3 153 189
c85 104 196 240 247 303 l92 114 0 90 0 89 -475 0 -475 0 0 -140z"/>
    </g>
</svg>
