<?xml version="1.0" encoding="UTF-8"?>
<!DOCTYPE svg PUBLIC "-//W3C//DTD SVG 1.1//EN" "http://www.w3.org/Graphics/SVG/1.1/DTD/svg11.dtd">
<!-- Creator: CorelDRAW 2019 (64 Bit) -->
<svg xmlns="http://www.w3.org/2000/svg" xml:space="preserve" width="390mm" height="130mm" version="1.1" style="shape-rendering:geometricPrecision; text-rendering:geometricPrecision; image-rendering:optimizeQuality; fill-rule:evenodd; clip-rule:evenodd"
     viewBox="0 0 39000000 13000000"
     xmlns:xlink="http://www.w3.org/1999/xlink">
 <defs>
  <style type="text/css">
   <![CDATA[
    .fil2 {fill:#FEFEFE}
    .fil134 {fill:#F6F5F5}
    .fil133 {fill:#F3F3F4}
    .fil132 {fill:#F3F2F3}
    .fil131 {fill:#F2F1F1}
    .fil130 {fill:#F1F1F0}
    .fil129 {fill:#F0EFF0}
    .fil128 {fill:#EFEEEF}
    .fil127 {fill:#EEEEEE}
    .fil126 {fill:#EDEDED}
    .fil125 {fill:#ECECEB}
    .fil124 {fill:#EBEAEA}
    .fil123 {fill:#EBE9EA}
    .fil122 {fill:#EAE9E9}
    .fil121 {fill:#E9E8E8}
    .fil120 {fill:#E8E7E6}
    .fil119 {fill:#E8E5E5}
    .fil118 {fill:#E6E4E4}
    .fil117 {fill:#E5E3E4}
    .fil116 {fill:#E5E3E3}
    .fil115 {fill:#E3E1E1}
    .fil114 {fill:#E2E0E0}
    .fil113 {fill:#E1DFDF}
    .fil112 {fill:#E0DFDE}
    .fil111 {fill:#DFDEDE}
    .fil110 {fill:#DEDCDC}
    .fil109 {fill:#DDDBDB}
    .fil108 {fill:#DCDADA}
    .fil107 {fill:#DBD9D9}
    .fil106 {fill:#DAD8D8}
    .fil105 {fill:#D9D7D7}
    .fil104 {fill:#D8D6D6}
    .fil103 {fill:#D8D4D5}
    .fil102 {fill:#D6D3D4}
    .fil101 {fill:#D5D2D3}
    .fil100 {fill:#D4D2D3}
    .fil99 {fill:#D3D1D2}
    .fil98 {fill:#D3D0D0}
    .fil97 {fill:#D1CFCF}
    .fil96 {fill:#D0CECE}
    .fil95 {fill:#CFCCCD}
    .fil94 {fill:#CECCCC}
    .fil93 {fill:#CDCBCB}
    .fil92 {fill:#CCCACA}
    .fil91 {fill:#CBC9C9}
    .fil90 {fill:#CAC8C8}
    .fil89 {fill:#C8C7C7}
    .fil88 {fill:#C8C5C5}
    .fil87 {fill:#C7C4C4}
    .fil86 {fill:#C6C2C3}
    .fil85 {fill:#C5C2C1}
    .fil84 {fill:#C4C1C0}
    .fil83 {fill:#C3C0C0}
    .fil82 {fill:#C3BFBF}
    .fil81 {fill:#C1BDBE}
    .fil80 {fill:#C0BDBD}
    .fil79 {fill:#BFBCBD}
    .fil78 {fill:#BDBBBC}
    .fil77 {fill:#BDBABA}
    .fil76 {fill:#BCB9B9}
    .fil75 {fill:#BBB8B8}
    .fil74 {fill:#BAB7B8}
    .fil73 {fill:#B8B5B7}
    .fil72 {fill:#B8B4B6}
    .fil71 {fill:#B7B3B5}
    .fil70 {fill:#B6B2B3}
    .fil69 {fill:#B5B1B2}
    .fil68 {fill:#B5B0B1}
    .fil67 {fill:#B3AFB0}
    .fil66 {fill:#B2AFAF}
    .fil65 {fill:#B1AFAF}
    .fil64 {fill:#B1ADAD}
    .fil63 {fill:#B0ACAD}
    .fil62 {fill:#AEABAC}
    .fil61 {fill:#ADAAAB}
    .fil60 {fill:#ACA9AA}
    .fil59 {fill:#ABA8A8}
    .fil58 {fill:#A9A6A7}
    .fil57 {fill:#A9A5A6}
    .fil56 {fill:#A6A3A4}
    .fil55 {fill:#A6A2A3}
    .fil54 {fill:#A5A1A1}
    .fil53 {fill:#A4A0A1}
    .fil52 {fill:#A39FA0}
    .fil51 {fill:#A29E9F}
    .fil50 {fill:#9F9B9D}
    .fil49 {fill:#9E9B9C}
    .fil48 {fill:#9E9A9B}
    .fil47 {fill:#9C9899}
    .fil46 {fill:#9B9698}
    .fil45 {fill:#9A9696}
    .fil44 {fill:#989495}
    .fil43 {fill:#979394}
    .fil42 {fill:#969293}
    .fil41 {fill:#949091}
    .fil40 {fill:#938F90}
    .fil39 {fill:#928E8F}
    .fil38 {fill:#908C8E}
    .fil37 {fill:#8F8B8C}
    .fil36 {fill:#8E8A8B}
    .fil35 {fill:#8D898A}
    .fil34 {fill:#8B8788}
    .fil33 {fill:#8A8688}
    .fil32 {fill:#898587}
    .fil31 {fill:#878384}
    .fil30 {fill:#868283}
    .fil29 {fill:#858182}
    .fil28 {fill:#837F81}
    .fil27 {fill:#827E7F}
    .fil26 {fill:#817D7F}
    .fil25 {fill:#807C7D}
    .fil24 {fill:#7F7B7C}
    .fil23 {fill:#7E797B}
    .fil22 {fill:#7B7778}
    .fil21 {fill:#7A7677}
    .fil20 {fill:#7A7577}
    .fil19 {fill:#777375}
    .fil18 {fill:#767274}
    .fil17 {fill:#757173}
    .fil16 {fill:#736F71}
    .fil15 {fill:#726E70}
    .fil14 {fill:#716D6F}
    .fil13 {fill:#706C6E}
    .fil12 {fill:#6E6B6C}
    .fil11 {fill:#6D696A}
    .fil10 {fill:#6C686A}
    .fil9 {fill:#6A6667}
    .fil8 {fill:#696566}
    .fil7 {fill:#686465}
    .fil6 {fill:#666264}
    .fil5 {fill:#656163}
    .fil0 {fill:#282829}
    .fil1 {fill:#FEFEFE;fill-rule:nonzero}
    .fil3 {fill:url(#id4)}
    .fil4 {fill:url(#id5)}
   ]]>
  </style>
     <clipPath id="id0">
      <path d="M6908450 7325850l483780 836730 427420 -737370 -484120 -836420 -427080 737060z"/>
     </clipPath>
     <clipPath id="id1">
      <path d="M6907930 8999620l-483780 -836730 -427420 737370 484120 836420 427080 -737060z"/>
     </clipPath>
     <clipPath id="id2">
      <path d="M3237150 5700550l490280 -846770 427420 737370 -490620 846460 -427080 -737060z"/>
     </clipPath>
     <clipPath id="id3">
      <path d="M10580740 5700130l-490280 -846770 -427420 737370 490620 846460 427080 -737060z"/>
     </clipPath>
     <linearGradient id="id4" gradientUnits="userSpaceOnUse" x1="9350570" y1="3457700" x2="10237010" y2="3530720">
   <stop offset="0" style="stop-opacity:1; stop-color:#373435"/>
         <stop offset="1" style="stop-opacity:1; stop-color:#FEFEFE"/>
  </linearGradient>
     <linearGradient id="id5" gradientUnits="userSpaceOnUse" xlink:href="#id4" x1="3581130" y1="3457700" x2="4467570" y2="3530720">
  </linearGradient>
 </defs>
    <g id="Camada_x0020_1">
  <metadata id="CorelCorpID_0Corel-Layer"/>
        <rect class="fil0" x="-7200" y="2400" width="39000000" height="13000000"/>
        <path class="fil1" d="M23092090 5375390l-1281070 4127010 -1402710 0 -656750 -2472970 -656760 2472970 -1402700 0 -1281070 -4127010 1200000 0 762150 2764850 737840 -2764850 1281070 0 737840 2764850 762160 -2764850 1200000 0zm3040540 -162170c243240,0 470270,45940 681070,137840 210820,91890 395950,217560 555410,377020 159460,159460 285130,344600 377030,555410 91890,210810 137840,437830 137840,681080l0 2537830 -1216220 0 0 -2302700c0,-118910 -24330,-232430 -72970,-340540 -48650,-108110 -113520,-202700 -194600,-283780 -81070,-81080 -175670,-144600 -283780,-190540 -108110,-45950 -221620,-68920 -340540,-68920 -124330,0 -240540,24330 -348650,72980 -108100,48640 -202700,113510 -283780,194590 -81080,81080 -145940,175670 -194600,283780 -48650,108100 -72960,224330 -72960,348650l0 2286480 -1216220 0 0 -5675670 1216220 0 0 2018920c167560,-189180 355400,-341890 563510,-458110 208100,-116210 439190,-174320 693240,-174320zm2602690 162170l1216220 0 0 4127010 -1216220 0 0 -4127010zm604060 -1872980c198640,0 367560,70270 508100,210810 139190,140540 209460,310820 209460,510810 0,200000 -70270,370270 -209460,510810 -140540,140540 -309460,210810 -508100,210810 -198650,0 -367570,-70270 -508110,-210810 -139190,-140540 -209460,-310810 -209460,-510810 0,-199990 70270,-370270 209460,-510810 140540,-140540 309460,-210810 508110,-210810zm5249980 4897290l0 1102700 -3867560 0 0 -566210 1994590 -2458110 -1881080 0 0 -1102690 3640540 0 0 695940 -1889190 2328370 2002700 0zm3243240 -3186480c129730,0 258110,9460 385140,28370 127030,18920 247290,50010 360810,93250l-251350 1102700c-10810,-32430 -64870,-60800 -162170,-85130 -97290,-24330 -194590,-36490 -291890,-36490 -194590,0 -367570,21620 -518920,64870 -151340,43240 -279730,95940 -385130,158100 -105400,62160 -186490,129740 -243240,202700 -56760,72980 -85140,141900 -85140,206760l0 2554050 -1216210 0 0 -4127010 1216210 0 0 640530c21620,-81080 77030,-168920 166220,-263510 89190,-94590 191890,-181080 308100,-259460 116220,-78380 237840,-144590 364870,-198650 127030,-54060 244590,-81080 352700,-81080z"/>
        <g id="_2022923343600">
   <path class="fil2" d="M3237150 5700550l-1693390 2924600c-176990,319650 -302480,682090 -302480,1070350 0,1103040 894180,1997220 1997220,1997220 1103030,0 1997210,-894180 1997210,-1997220 0,-388260 -125490,-750700 -302470,-1070350l-1696090 -2924600zm490280 -846770l1913680 3299790c137330,248030 252800,514250 329190,794680l453850 -785360 -1917680 -3311670c-135090,-243980 -249000,-505540 -325400,-780920l-453640 783480zm3179970 4144880l-1219700 2110880c-492150,836060 -1408860,1392860 -2449190,1392860 -1563760,0 -2831420,-1267670 -2831420,-2831420 0,-550430 177900,-1064250 428820,-1517410l3615170 -6243100c490050,-844430 1411360,-1408070 2457990,-1408070 1046630,0 1967940,563640 2457990,1408070l3615170 6243100c250920,453160 428820,966980 428820,1517410 0,1563750 -1267660,2831420 -2831420,2831420 -1040330,0 -1957040,-556800 -2449190,-1392860l-1223040 -2110880zm1050 -1672810l-1694130 -2925910c-176990,-319650 -302480,-682080 -302480,-1070340 0,-1103040 894180,-1997220 1997230,-1997220 1103050,0 1997230,894180 1997230,1997220 0,388260 -125490,750690 -302480,1070340l-1695370 2925910zm3672300 -1625730l1693630 2925030c176990,319650 302480,682090 302480,1070350 0,1103040 -894180,1997220 -1997220,1997220 -1103030,0 -1997210,-894180 -1997210,-1997220 0,-388260 125490,-750700 302470,-1070350l1695850 -2925030zm-490290 -846760l-1913430 3300210c-137330,248030 -252800,514250 -329190,794680l-455610 -785670 1919440 -3311360c135090,-243980 249000,-505540 325400,-780920l453390 783060z"/>
            <path class="fil3" d="M9367060 1910470c240750,415960 369210,903930 369210,1419130 0,257740 -33780,504860 -98800,741400l583050 1006950 0 -1693710 -853460 -1473770z"/>
            <path class="fil4" d="M4451080 1910470c-240750,415960 -369210,903930 -369210,1419130 0,257740 33780,504860 98800,741400l-583050 1006950 0 -1693710 853460 -1473770z"/>
            <g>
    <g style="clip-path:url(#id0)">
     <polygon class="fil5" points="6648700,7046250 6652120,7043970 7395650,8160310 7392230,8162580 "/>
        <polygon id="1" class="fil6" points="6650240,7045230 6655880,7041470 7399400,8157800 7393770,8161560 "/>
        <polygon id="2" class="fil7" points="6654000,7042720 6659630,7038970 7403160,8155300 7397520,8159050 "/>
        <polygon id="3" class="fil8" points="6657750,7040220 6663390,7036460 7406920,8152800 7401280,8156550 "/>
        <polygon id="4" class="fil9" points="6661510,7037720 6667150,7033960 7410680,8150290 7405040,8154050 "/>
        <polygon id="5" class="fil10" points="6665270,7035210 6670910,7031460 7414440,8147790 7408800,8151540 "/>
        <polygon id="6" class="fil11" points="6669030,7032710 6674670,7028950 7418190,8145290 7412560,8149040 "/>
        <polygon id="7" class="fil12" points="6672790,7030210 6678420,7026450 7421950,8142780 7416320,8146540 "/>
        <polygon id="8" class="fil13" points="6676550,7027700 6682180,7023950 7425710,8140280 7420070,8144040 "/>
        <polygon id="9" class="fil14" points="6680300,7025200 6685940,7021450 7429470,8137780 7423830,8141530 "/>
        <polygon id="10" class="fil15" points="6684060,7022700 6689700,7018940 7433230,8135270 7427590,8139030 "/>
        <polygon id="11" class="fil16" points="6687820,7020190 6693460,7016440 7436990,8132770 7431350,8136530 "/>
        <polygon id="12" class="fil17" points="6691580,7017690 6697220,7013940 7440740,8130270 7435110,8134020 "/>
        <polygon id="13" class="fil18" points="6695340,7015190 6700970,7011430 7444500,8127760 7438860,8131520 "/>
        <polygon id="14" class="fil19" points="6699090,7012680 6704730,7008930 7448260,8125260 7442620,8129020 "/>
        <polygon id="15" class="fil20" points="6702850,7010180 6708490,7006430 7452020,8122760 7446380,8126510 "/>
        <polygon id="16" class="fil21" points="6706610,7007680 6712250,7003920 7455780,8120260 7450140,8124010 "/>
        <polygon id="17" class="fil22" points="6710370,7005180 6716010,7001420 7459530,8117750 7453900,8121510 "/>
        <polygon id="18" class="fil23" points="6714130,7002670 6719770,6998920 7463290,8115250 7457660,8119000 "/>
        <polygon id="19" class="fil24" points="6717890,7000170 6723520,6996410 7467050,8112750 7461410,8116500 "/>
        <polygon id="20" class="fil25" points="6721640,6997670 6727280,6993910 7470810,8110240 7465170,8114000 "/>
        <polygon id="21" class="fil26" points="6725400,6995160 6731040,6991410 7474570,8107740 7468930,8111490 "/>
        <polygon id="22" class="fil27" points="6729160,6992660 6734800,6988900 7478330,8105240 7472690,8108990 "/>
        <polygon id="23" class="fil28" points="6732920,6990160 6738560,6986400 7482080,8102730 7476450,8106490 "/>
        <polygon id="24" class="fil29" points="6736680,6987650 6742310,6983900 7485840,8100230 7480200,8103980 "/>
        <polygon id="25" class="fil30" points="6740440,6985150 6746070,6981400 7489600,8097730 7483960,8101480 "/>
        <polygon id="26" class="fil31" points="6744190,6982650 6749830,6978890 7493360,8095220 7487720,8098980 "/>
        <polygon id="27" class="fil32" points="6747950,6980140 6753590,6976390 7497120,8092720 7491480,8096480 "/>
        <polygon id="28" class="fil33" points="6751710,6977640 6757350,6973890 7500870,8090220 7495240,8093970 "/>
        <polygon id="29" class="fil34" points="6755470,6975140 6761110,6971380 7504630,8087710 7499000,8091470 "/>
        <polygon id="30" class="fil35" points="6759230,6972630 6764860,6968880 7508390,8085210 7502750,8088970 "/>
        <polygon id="31" class="fil36" points="6762980,6970130 6768620,6966380 7512150,8082710 7506510,8086460 "/>
        <polygon id="32" class="fil37" points="6766740,6967630 6772380,6963870 7515910,8080210 7510270,8083960 "/>
        <polygon id="33" class="fil38" points="6770500,6965130 6776140,6961370 7519670,8077700 7514030,8081460 "/>
        <polygon id="34" class="fil39" points="6774260,6962620 6779900,6958870 7523420,8075200 7517790,8078950 "/>
        <polygon id="35" class="fil40" points="6778020,6960120 6783650,6956360 7527180,8072700 7521540,8076450 "/>
        <polygon id="36" class="fil41" points="6781780,6957620 6787410,6953860 7530940,8070190 7525300,8073950 "/>
        <polygon id="37" class="fil42" points="6785530,6955110 6791170,6951360 7534700,8067690 7529060,8071440 "/>
        <polygon id="38" class="fil43" points="6789290,6952610 6794930,6948850 7538460,8065190 7532820,8068940 "/>
        <polygon id="39" class="fil44" points="6793050,6950110 6798690,6946350 7542210,8062680 7536580,8066440 "/>
        <polygon id="40" class="fil45" points="6796810,6947600 6802450,6943850 7545970,8060180 7540340,8063930 "/>
        <polygon id="41" class="fil46" points="6800570,6945100 6806200,6941350 7549730,8057680 7544090,8061430 "/>
        <polygon id="42" class="fil47" points="6804320,6942600 6809960,6938840 7553490,8055170 7547850,8058930 "/>
        <polygon id="43" class="fil48" points="6808080,6940090 6813720,6936340 7557250,8052670 7551610,8056430 "/>
        <polygon id="44" class="fil49" points="6811840,6937590 6817480,6933840 7561010,8050170 7555370,8053920 "/>
        <polygon id="45" class="fil50" points="6815600,6935090 6821240,6931330 7564760,8047660 7559130,8051420 "/>
        <polygon id="46" class="fil51" points="6819360,6932580 6824990,6928830 7568520,8045160 7562880,8048920 "/>
        <polygon id="47" class="fil52" points="6823120,6930080 6828750,6926330 7572280,8042660 7566640,8046410 "/>
        <polygon id="48" class="fil53" points="6826870,6927580 6832510,6923820 7576040,8040160 7570400,8043910 "/>
        <polygon id="49" class="fil54" points="6830630,6925080 6836270,6921320 7579800,8037650 7574160,8041410 "/>
        <polygon id="50" class="fil55" points="6834390,6922570 6840030,6918820 7583550,8035150 7577920,8038900 "/>
        <polygon id="51" class="fil56" points="6838150,6920070 6843790,6916310 7587310,8032650 7581680,8036400 "/>
        <polygon id="52" class="fil57" points="6841910,6917570 6847540,6913810 7591070,8030140 7585430,8033900 "/>
        <polygon id="53" class="fil58" points="6845660,6915060 6851300,6911310 7594830,8027640 7589190,8031390 "/>
        <polygon id="54" class="fil59" points="6849420,6912560 6855060,6908800 7598590,8025140 7592950,8028890 "/>
        <polygon id="55" class="fil60" points="6853180,6910060 6858820,6906300 7602350,8022630 7596710,8026390 "/>
        <polygon id="56" class="fil61" points="6856940,6907550 6862580,6903800 7606100,8020130 7600470,8023880 "/>
        <polygon id="57" class="fil62" points="6860700,6905050 6866330,6901300 7609860,8017630 7604220,8021380 "/>
        <polygon id="58" class="fil63" points="6864460,6902550 6870090,6898790 7613620,8015120 7607980,8018880 "/>
        <polygon id="59" class="fil64" points="6868210,6900040 6873850,6896290 7617380,8012620 7611740,8016380 "/>
        <polygon id="60" class="fil65" points="6871970,6897540 6877610,6893790 7621140,8010120 7615500,8013870 "/>
        <polygon id="61" class="fil66" points="6875730,6895040 6881370,6891280 7624890,8007610 7619260,8011370 "/>
        <polygon id="62" class="fil67" points="6879490,6892530 6885130,6888780 7628650,8005110 7623020,8008870 "/>
        <polygon id="63" class="fil68" points="6883250,6890030 6888880,6886280 7632410,8002610 7626770,8006360 "/>
        <polygon id="64" class="fil69" points="6887000,6887530 6892640,6883770 7636170,8000110 7630530,8003860 "/>
        <polygon id="65" class="fil70" points="6890760,6885030 6896400,6881270 7639930,7997600 7634290,8001360 "/>
        <polygon id="66" class="fil71" points="6894520,6882520 6900160,6878770 7643690,7995100 7638050,7998850 "/>
        <polygon id="67" class="fil72" points="6898280,6880020 6903920,6876260 7647440,7992600 7641810,7996350 "/>
        <polygon id="68" class="fil73" points="6902040,6877520 6907670,6873760 7651200,7990090 7645560,7993850 "/>
        <polygon id="69" class="fil74" points="6905800,6875010 6911430,6871260 7654960,7987590 7649320,7991340 "/>
        <polygon id="70" class="fil75" points="6909550,6872510 6915190,6868750 7658720,7985090 7653080,7988840 "/>
        <polygon id="71" class="fil75" points="6913310,6870010 6918950,6866250 7662480,7982580 7656840,7986340 "/>
        <polygon id="72" class="fil76" points="6917070,6867500 6922710,6863750 7666240,7980080 7660600,7983830 "/>
        <polygon id="73" class="fil77" points="6920830,6865000 6926470,6861250 7669990,7977580 7664360,7981330 "/>
        <polygon id="74" class="fil78" points="6924590,6862500 6930220,6858740 7673750,7975070 7668110,7978830 "/>
        <polygon id="75" class="fil79" points="6928340,6859990 6933980,6856240 7677510,7972570 7671870,7976330 "/>
        <polygon id="76" class="fil80" points="6932100,6857490 6937740,6853740 7681270,7970070 7675630,7973820 "/>
        <polygon id="77" class="fil80" points="6935860,6854990 6941500,6851230 7685030,7967560 7679390,7971320 "/>
        <polygon id="78" class="fil81" points="6939620,6852480 6945260,6848730 7688780,7965060 7683150,7968820 "/>
        <polygon id="79" class="fil82" points="6943380,6849980 6949010,6846230 7692540,7962560 7686910,7966310 "/>
        <polygon id="80" class="fil83" points="6947140,6847480 6952770,6843720 7696300,7960060 7690660,7963810 "/>
        <polygon id="81" class="fil84" points="6950890,6844980 6956530,6841220 7700060,7957550 7694420,7961310 "/>
        <polygon id="82" class="fil84" points="6954650,6842470 6960290,6838720 7703820,7955050 7698180,7958800 "/>
        <polygon id="83" class="fil85" points="6958410,6839970 6964050,6836210 7707580,7952550 7701940,7956300 "/>
        <polygon id="84" class="fil86" points="6962170,6837470 6967810,6833710 7711330,7950040 7705700,7953800 "/>
        <polygon id="85" class="fil87" points="6965930,6834960 6971560,6831210 7715090,7947540 7709450,7951290 "/>
        <polygon id="86" class="fil87" points="6969680,6832460 6975320,6828700 7718850,7945040 7713210,7948790 "/>
        <polygon id="87" class="fil88" points="6973440,6829960 6979080,6826200 7722610,7942530 7716970,7946290 "/>
        <polygon id="88" class="fil89" points="6977200,6827450 6982840,6823700 7726370,7940030 7720730,7943780 "/>
        <polygon id="89" class="fil89" points="6980960,6824950 6986600,6821200 7730120,7937530 7724490,7941280 "/>
        <polygon id="90" class="fil90" points="6984720,6822450 6990350,6818690 7733880,7935020 7728250,7938780 "/>
        <polygon id="91" class="fil91" points="6988480,6819940 6994110,6816190 7737640,7932520 7732000,7936280 "/>
        <polygon id="92" class="fil92" points="6992230,6817440 6997870,6813690 7741400,7930020 7735760,7933770 "/>
        <polygon id="93" class="fil92" points="6995990,6814940 7001630,6811180 7745160,7927510 7739520,7931270 "/>
        <polygon id="94" class="fil93" points="6999750,6812430 7005390,6808680 7748920,7925010 7743280,7928770 "/>
        <polygon id="95" class="fil94" points="7003510,6809930 7009150,6806180 7752670,7922510 7747040,7926260 "/>
        <polygon id="96" class="fil94" points="7007270,6807430 7012900,6803670 7756430,7920010 7750790,7923760 "/>
        <polygon id="97" class="fil95" points="7011020,6804930 7016660,6801170 7760190,7917500 7754550,7921260 "/>
        <polygon id="98" class="fil95" points="7014780,6802420 7020420,6798670 7763950,7915000 7758310,7918750 "/>
        <polygon id="99" class="fil96" points="7018540,6799920 7024180,6796160 7767710,7912500 7762070,7916250 "/>
        <polygon id="100" class="fil97" points="7022300,6797420 7027940,6793660 7771460,7909990 7765830,7913750 "/>
        <polygon id="101" class="fil97" points="7026060,6794910 7031690,6791160 7775220,7907490 7769590,7911240 "/>
        <polygon id="102" class="fil98" points="7029820,6792410 7035450,6788650 7778980,7904990 7773340,7908740 "/>
        <polygon id="103" class="fil99" points="7033570,6789910 7039210,6786150 7782740,7902480 7777100,7906240 "/>
        <polygon id="104" class="fil99" points="7037330,6787400 7042970,6783650 7786500,7899980 7780860,7903730 "/>
        <polygon id="105" class="fil100" points="7041090,6784900 7046730,6781150 7790260,7897480 7784620,7901230 "/>
        <polygon id="106" class="fil100" points="7044850,6782400 7050490,6778640 7794010,7894970 7788380,7898730 "/>
        <polygon id="107" class="fil101" points="7048610,6779890 7054240,6776140 7797770,7892470 7792130,7896230 "/>
        <polygon id="108" class="fil102" points="7052370,6777390 7058000,6773640 7801530,7889970 7795890,7893720 "/>
        <polygon id="109" class="fil102" points="7056120,6774890 7061760,6771130 7805290,7887460 7799650,7891220 "/>
        <polygon id="110" class="fil103" points="7059880,6772380 7065520,6768630 7809050,7884960 7803410,7888720 "/>
        <polygon id="111" class="fil103" points="7063640,6769880 7069280,6766130 7812800,7882460 7807170,7886210 "/>
        <polygon id="112" class="fil104" points="7067400,6767380 7073040,6763620 7816560,7879960 7810930,7883710 "/>
        <polygon id="113" class="fil104" points="7071160,6764880 7076790,6761120 7820320,7877450 7814680,7881210 "/>
        <polygon id="114" class="fil105" points="7074910,6762370 7080550,6758620 7824080,7874950 7818440,7878700 "/>
        <polygon id="115" class="fil105" points="7078670,6759870 7084310,6756110 7827840,7872450 7822200,7876200 "/>
        <polygon id="116" class="fil106" points="7082430,6757370 7088070,6753610 7831600,7869940 7825960,7873700 "/>
        <polygon id="117" class="fil106" points="7086190,6754860 7091830,6751110 7835350,7867440 7829720,7871190 "/>
        <polygon id="118" class="fil107" points="7089950,6752360 7095580,6748600 7839110,7864940 7833470,7868690 "/>
        <polygon id="119" class="fil107" points="7093710,6749860 7099340,6746100 7842870,7862430 7837230,7866190 "/>
        <polygon id="120" class="fil108" points="7097460,6747350 7103100,6743600 7846630,7859930 7840990,7863680 "/>
        <polygon id="121" class="fil108" points="7101220,6744850 7106860,6741100 7850390,7857430 7844750,7861180 "/>
        <polygon id="122" class="fil109" points="7104980,6742350 7110620,6738590 7854140,7854920 7848510,7858680 "/>
        <polygon id="123" class="fil109" points="7108740,6739840 7114380,6736090 7857900,7852420 7852270,7856180 "/>
        <polygon id="124" class="fil110" points="7112500,6737340 7118130,6733590 7861660,7849920 7856020,7853670 "/>
        <polygon id="125" class="fil110" points="7116250,6734840 7121890,6731080 7865420,7847410 7859780,7851170 "/>
        <polygon id="126" class="fil111" points="7120010,6732330 7125650,6728580 7869180,7844910 7863540,7848670 "/>
        <polygon id="127" class="fil111" points="7123770,6729830 7129410,6726080 7872940,7842410 7867300,7846160 "/>
        <polygon id="128" class="fil112" points="7127530,6727330 7133170,6723570 7876690,7839910 7871060,7843660 "/>
        <polygon id="129" class="fil112" points="7131290,6724830 7136920,6721070 7880450,7837400 7874810,7841160 "/>
        <polygon id="130" class="fil113" points="7135050,6722320 7140680,6718570 7884210,7834900 7878570,7838650 "/>
        <polygon id="131" class="fil113" points="7138800,6719820 7144440,6716060 7887970,7832400 7882330,7836150 "/>
        <polygon id="132" class="fil114" points="7142560,6717320 7148200,6713560 7891730,7829890 7886090,7833650 "/>
        <polygon id="133" class="fil114" points="7146320,6714810 7151960,6711060 7895480,7827390 7889850,7831140 "/>
        <polygon id="134" class="fil115" points="7150080,6712310 7155720,6708550 7899240,7824890 7893610,7828640 "/>
        <polygon id="135" class="fil115" points="7153840,6709810 7159470,6706050 7903000,7822380 7897360,7826140 "/>
        <polygon id="136" class="fil116" points="7157590,6707300 7163230,6703550 7906760,7819880 7901120,7823630 "/>
        <polygon id="137" class="fil116" points="7161350,6704800 7166990,6701050 7910520,7817380 7904880,7821130 "/>
        <polygon id="138" class="fil116" points="7165110,6702300 7170750,6698540 7914280,7814870 7908640,7818630 "/>
        <polygon id="139" class="fil117" points="7168870,6699790 7174510,6696040 7918030,7812370 7912400,7816130 "/>
        <polygon id="140" class="fil117" points="7172630,6697290 7178260,6693540 7921790,7809870 7916150,7813620 "/>
        <polygon id="141" class="fil118" points="7176390,6694790 7182020,6691030 7925550,7807360 7919910,7811120 "/>
        <polygon id="142" class="fil118" points="7180140,6692280 7185780,6688530 7929310,7804860 7923670,7808620 "/>
        <polygon id="143" class="fil119" points="7183900,6689780 7189540,6686030 7933070,7802360 7927430,7806110 "/>
        <polygon id="144" class="fil119" points="7187660,6687280 7193300,6683520 7936820,7799860 7931190,7803610 "/>
        <polygon id="145" class="fil120" points="7191420,6684780 7197060,6681020 7940580,7797350 7934950,7801110 "/>
        <polygon id="146" class="fil121" points="7195180,6682270 7200810,6678520 7944340,7794850 7938700,7798600 "/>
        <polygon id="147" class="fil121" points="7198930,6679770 7204570,6676010 7948100,7792350 7942460,7796100 "/>
        <polygon id="148" class="fil122" points="7202690,6677270 7208330,6673510 7951860,7789840 7946220,7793600 "/>
        <polygon id="149" class="fil122" points="7206450,6674760 7212090,6671010 7955620,7787340 7949980,7791090 "/>
        <polygon id="150" class="fil122" points="7210210,6672260 7215850,6668500 7959370,7784840 7953740,7788590 "/>
        <polygon id="151" class="fil123" points="7213970,6669760 7219600,6666000 7963130,7782330 7957490,7786090 "/>
        <polygon id="152" class="fil123" points="7217730,6667250 7223360,6663500 7966890,7779830 7961250,7783580 "/>
        <polygon id="153" class="fil123" points="7221480,6664750 7227120,6661000 7970650,7777330 7965010,7781080 "/>
        <polygon id="154" class="fil124" points="7225240,6662250 7230880,6658490 7974410,7774820 7968770,7778580 "/>
        <polygon id="155" class="fil124" points="7229000,6659740 7234640,6655990 7978160,7772320 7972530,7776080 "/>
        <polygon id="156" class="fil125" points="7232760,6657240 7238400,6653490 7981920,7769820 7976290,7773570 "/>
        <polygon id="157" class="fil125" points="7236520,6654740 7242150,6650980 7985680,7767310 7980040,7771070 "/>
        <polygon id="158" class="fil125" points="7240270,6652230 7245910,6648480 7989440,7764810 7983800,7768570 "/>
        <polygon id="159" class="fil126" points="7244030,6649730 7249670,6645980 7993200,7762310 7987560,7766060 "/>
        <polygon id="160" class="fil126" points="7247790,6647230 7253430,6643470 7996960,7759810 7991320,7763560 "/>
        <polygon id="161" class="fil126" points="7251550,6644730 7257190,6640970 8000710,7757300 7995080,7761060 "/>
        <polygon id="162" class="fil127" points="7255310,6642220 7260940,6638470 8004470,7754800 7998840,7758550 "/>
        <polygon id="163" class="fil127" points="7259070,6639720 7264700,6635960 8008230,7752300 8002590,7756050 "/>
        <polygon id="164" class="fil127" points="7262820,6637220 7268460,6633460 8011990,7749790 8006350,7753550 "/>
        <polygon id="165" class="fil128" points="7266580,6634710 7272220,6630960 8015750,7747290 8010110,7751040 "/>
        <polygon id="166" class="fil128" points="7270340,6632210 7275980,6628450 8019510,7744790 8013870,7748540 "/>
        <polygon id="167" class="fil128" points="7274100,6629710 7279740,6625950 8023260,7742280 8017630,7746040 "/>
        <polygon id="168" class="fil129" points="7277860,6627200 7283490,6623450 8027020,7739780 8021380,7743530 "/>
        <polygon id="169" class="fil129" points="7281610,6624700 7287250,6620950 8030780,7737280 8025140,7741030 "/>
        <polygon id="170" class="fil129" points="7285370,6622200 7291010,6618440 8034540,7734770 8028900,7738530 "/>
        <polygon id="171" class="fil130" points="7289130,6619690 7294770,6615940 8038300,7732270 8032660,7736030 "/>
        <polygon id="172" class="fil130" points="7292890,6617190 7298530,6613440 8042050,7729770 8036420,7733520 "/>
        <polygon id="173" class="fil130" points="7296650,6614690 7302280,6610930 8045810,7727260 8040180,7731020 "/>
        <polygon id="174" class="fil131" points="7300410,6612180 7306040,6608430 8049570,7724760 8043930,7728520 "/>
        <polygon id="175" class="fil131" points="7304160,6609680 7309800,6605930 8053330,7722260 8047690,7726010 "/>
        <polygon id="176" class="fil131" points="7307920,6607180 7313560,6603420 8057090,7719760 8051450,7723510 "/>
        <polygon id="177" class="fil132" points="7311680,6604670 7317320,6600920 8060850,7717250 8055210,7721010 "/>
        <polygon id="178" class="fil132" points="7315440,6602170 7321080,6598420 8064600,7714750 8058970,7718500 "/>
        <polygon id="179" class="fil132" points="7319200,6599670 7324830,6595910 8068360,7712250 8062720,7716000 "/>
        <polygon id="180" class="fil133" points="7322950,6597170 7328590,6593410 8072120,7709740 8066480,7713500 "/>
        <polygon id="181" class="fil133" points="7326710,6594660 7332350,6590910 8075880,7707240 8070240,7710990 "/>
        <polygon id="182" class="fil133" points="7330470,6592160 7336110,6588400 8079640,7704740 8074000,7708490 "/>
        <polygon id="183" class="fil134" points="7334230,6589660 7339870,6585900 8083390,7702230 8077760,7705990 "/>
        <polygon id="184" class="fil134" points="7337990,6587150 7335530,6588790 8079060,7705120 8081520,7703480 "/>
    </g>
   </g>
            <g>
    <g style="clip-path:url(#id1)">
     <polygon class="fil5" points="7167680,9279220 7164260,9281500 6420730,8165160 6424150,8162890 "/>
        <polygon id="1" class="fil6" points="7166140,9280240 7160500,9284000 6416980,8167670 6422610,8163910 "/>
        <polygon id="2" class="fil7" points="7162380,9282750 7156750,9286500 6413220,8170170 6418860,8166420 "/>
        <polygon id="3" class="fil8" points="7158630,9285250 7152990,9289010 6409460,8172670 6415100,8168920 "/>
        <polygon id="4" class="fil9" points="7154870,9287750 7149230,9291510 6405700,8175180 6411340,8171420 "/>
        <polygon id="5" class="fil10" points="7151110,9290260 7145470,9294010 6401940,8177680 6407580,8173930 "/>
        <polygon id="6" class="fil11" points="7147350,9292760 7141710,9296520 6398190,8180180 6403820,8176430 "/>
        <polygon id="7" class="fil12" points="7143590,9295260 7137960,9299020 6394430,8182690 6400060,8178930 "/>
        <polygon id="8" class="fil13" points="7139830,9297770 7134200,9301520 6390670,8185190 6396310,8181430 "/>
        <polygon id="9" class="fil14" points="7136080,9300270 7130440,9304020 6386910,8187690 6392550,8183940 "/>
        <polygon id="10" class="fil15" points="7132320,9302770 7126680,9306530 6383150,8190200 6388790,8186440 "/>
        <polygon id="11" class="fil16" points="7128560,9305280 7122920,9309030 6379390,8192700 6385030,8188940 "/>
        <polygon id="12" class="fil17" points="7124800,9307780 7119160,9311530 6375640,8195200 6381270,8191450 "/>
        <polygon id="13" class="fil18" points="7121040,9310280 7115410,9314040 6371880,8197710 6377520,8193950 "/>
        <polygon id="14" class="fil19" points="7117290,9312790 7111650,9316540 6368120,8200210 6373760,8196450 "/>
        <polygon id="15" class="fil20" points="7113530,9315290 7107890,9319040 6364360,8202710 6370000,8198960 "/>
        <polygon id="16" class="fil21" points="7109770,9317790 7104130,9321550 6360600,8205210 6366240,8201460 "/>
        <polygon id="17" class="fil22" points="7106010,9320290 7100370,9324050 6356850,8207720 6362480,8203960 "/>
        <polygon id="18" class="fil23" points="7102250,9322800 7096610,9326550 6353090,8210220 6358720,8206470 "/>
        <polygon id="19" class="fil24" points="7098490,9325300 7092860,9329060 6349330,8212720 6354970,8208970 "/>
        <polygon id="20" class="fil25" points="7094740,9327800 7089100,9331560 6345570,8215230 6351210,8211470 "/>
        <polygon id="21" class="fil26" points="7090980,9330310 7085340,9334060 6341810,8217730 6347450,8213980 "/>
        <polygon id="22" class="fil27" points="7087220,9332810 7081580,9336570 6338050,8220230 6343690,8216480 "/>
        <polygon id="23" class="fil28" points="7083460,9335310 7077820,9339070 6334300,8222740 6339930,8218980 "/>
        <polygon id="24" class="fil29" points="7079700,9337820 7074070,9341570 6330540,8225240 6336180,8221490 "/>
        <polygon id="25" class="fil30" points="7075940,9340320 7070310,9344070 6326780,8227740 6332420,8223990 "/>
        <polygon id="26" class="fil31" points="7072190,9342820 7066550,9346580 6323020,8230250 6328660,8226490 "/>
        <polygon id="27" class="fil32" points="7068430,9345330 7062790,9349080 6319260,8232750 6324900,8228990 "/>
        <polygon id="28" class="fil33" points="7064670,9347830 7059030,9351580 6315510,8235250 6321140,8231500 "/>
        <polygon id="29" class="fil34" points="7060910,9350330 7055270,9354090 6311750,8237760 6317380,8234000 "/>
        <polygon id="30" class="fil35" points="7057150,9352840 7051520,9356590 6307990,8240260 6313630,8236500 "/>
        <polygon id="31" class="fil36" points="7053400,9355340 7047760,9359090 6304230,8242760 6309870,8239010 "/>
        <polygon id="32" class="fil37" points="7049640,9357840 7044000,9361600 6300470,8245260 6306110,8241510 "/>
        <polygon id="33" class="fil38" points="7045880,9360340 7040240,9364100 6296710,8247770 6302350,8244010 "/>
        <polygon id="34" class="fil39" points="7042120,9362850 7036480,9366600 6292960,8250270 6298590,8246520 "/>
        <polygon id="35" class="fil40" points="7038360,9365350 7032730,9369110 6289200,8252770 6294840,8249020 "/>
        <polygon id="36" class="fil41" points="7034600,9367850 7028970,9371610 6285440,8255280 6291080,8251520 "/>
        <polygon id="37" class="fil42" points="7030850,9370360 7025210,9374110 6281680,8257780 6287320,8254030 "/>
        <polygon id="38" class="fil43" points="7027090,9372860 7021450,9376620 6277920,8260280 6283560,8256530 "/>
        <polygon id="39" class="fil44" points="7023330,9375360 7017690,9379120 6274170,8262790 6279800,8259030 "/>
        <polygon id="40" class="fil45" points="7019570,9377870 7013930,9381620 6270410,8265290 6276040,8261540 "/>
        <polygon id="41" class="fil46" points="7015810,9380370 7010180,9384120 6266650,8267790 6272290,8264040 "/>
        <polygon id="42" class="fil47" points="7012060,9382870 7006420,9386630 6262890,8270300 6268530,8266540 "/>
        <polygon id="43" class="fil48" points="7008300,9385380 7002660,9389130 6259130,8272800 6264770,8269040 "/>
        <polygon id="44" class="fil49" points="7004540,9387880 6998900,9391630 6255370,8275300 6261010,8271550 "/>
        <polygon id="45" class="fil50" points="7000780,9390380 6995140,9394140 6251620,8277810 6257250,8274050 "/>
        <polygon id="46" class="fil51" points="6997020,9392890 6991390,9396640 6247860,8280310 6253500,8276550 "/>
        <polygon id="47" class="fil52" points="6993260,9395390 6987630,9399140 6244100,8282810 6249740,8279060 "/>
        <polygon id="48" class="fil53" points="6989510,9397890 6983870,9401650 6240340,8285310 6245980,8281560 "/>
        <polygon id="49" class="fil54" points="6985750,9400390 6980110,9404150 6236580,8287820 6242220,8284060 "/>
        <polygon id="50" class="fil55" points="6981990,9402900 6976350,9406650 6232830,8290320 6238460,8286570 "/>
        <polygon id="51" class="fil56" points="6978230,9405400 6972590,9409160 6229070,8292820 6234700,8289070 "/>
        <polygon id="52" class="fil57" points="6974470,9407900 6968840,9411660 6225310,8295330 6230950,8291570 "/>
        <polygon id="53" class="fil58" points="6970720,9410410 6965080,9414160 6221550,8297830 6227190,8294080 "/>
        <polygon id="54" class="fil59" points="6966960,9412910 6961320,9416670 6217790,8300330 6223430,8296580 "/>
        <polygon id="55" class="fil60" points="6963200,9415410 6957560,9419170 6214030,8302840 6219670,8299080 "/>
        <polygon id="56" class="fil61" points="6959440,9417920 6953800,9421670 6210280,8305340 6215910,8301590 "/>
        <polygon id="57" class="fil62" points="6955680,9420420 6950050,9424170 6206520,8307840 6212160,8304090 "/>
        <polygon id="58" class="fil63" points="6951920,9422920 6946290,9426680 6202760,8310350 6208400,8306590 "/>
        <polygon id="59" class="fil64" points="6948170,9425430 6942530,9429180 6199000,8312850 6204640,8309090 "/>
        <polygon id="60" class="fil65" points="6944410,9427930 6938770,9431680 6195240,8315350 6200880,8311600 "/>
        <polygon id="61" class="fil66" points="6940650,9430430 6935010,9434190 6191490,8317860 6197120,8314100 "/>
        <polygon id="62" class="fil67" points="6936890,9432940 6931250,9436690 6187730,8320360 6193360,8316600 "/>
        <polygon id="63" class="fil68" points="6933130,9435440 6927500,9439190 6183970,8322860 6189610,8319110 "/>
        <polygon id="64" class="fil69" points="6929380,9437940 6923740,9441700 6180210,8325360 6185850,8321610 "/>
        <polygon id="65" class="fil70" points="6925620,9440440 6919980,9444200 6176450,8327870 6182090,8324110 "/>
        <polygon id="66" class="fil71" points="6921860,9442950 6916220,9446700 6172690,8330370 6178330,8326620 "/>
        <polygon id="67" class="fil72" points="6918100,9445450 6912460,9449210 6168940,8332870 6174570,8329120 "/>
        <polygon id="68" class="fil73" points="6914340,9447950 6908710,9451710 6165180,8335380 6170820,8331620 "/>
        <polygon id="69" class="fil74" points="6910580,9450460 6904950,9454210 6161420,8337880 6167060,8334130 "/>
        <polygon id="70" class="fil75" points="6906830,9452960 6901190,9456720 6157660,8340380 6163300,8336630 "/>
        <polygon id="71" class="fil75" points="6903070,9455460 6897430,9459220 6153900,8342890 6159540,8339130 "/>
        <polygon id="72" class="fil76" points="6899310,9457970 6893670,9461720 6150140,8345390 6155780,8341640 "/>
        <polygon id="73" class="fil77" points="6895550,9460470 6889910,9464220 6146390,8347890 6152020,8344140 "/>
        <polygon id="74" class="fil78" points="6891790,9462970 6886160,9466730 6142630,8350400 6148270,8346640 "/>
        <polygon id="75" class="fil79" points="6888040,9465480 6882400,9469230 6138870,8352900 6144510,8349140 "/>
        <polygon id="76" class="fil80" points="6884280,9467980 6878640,9471730 6135110,8355400 6140750,8351650 "/>
        <polygon id="77" class="fil80" points="6880520,9470480 6874880,9474240 6131350,8357910 6136990,8354150 "/>
        <polygon id="78" class="fil81" points="6876760,9472990 6871120,9476740 6127600,8360410 6133230,8356650 "/>
        <polygon id="79" class="fil82" points="6873000,9475490 6867370,9479240 6123840,8362910 6129470,8359160 "/>
        <polygon id="80" class="fil83" points="6869240,9477990 6863610,9481750 6120080,8365410 6125720,8361660 "/>
        <polygon id="81" class="fil84" points="6865490,9480490 6859850,9484250 6116320,8367920 6121960,8364160 "/>
        <polygon id="82" class="fil84" points="6861730,9483000 6856090,9486750 6112560,8370420 6118200,8366670 "/>
        <polygon id="83" class="fil85" points="6857970,9485500 6852330,9489260 6108800,8372920 6114440,8369170 "/>
        <polygon id="84" class="fil86" points="6854210,9488000 6848570,9491760 6105050,8375430 6110680,8371670 "/>
        <polygon id="85" class="fil87" points="6850450,9490510 6844820,9494260 6101290,8377930 6106930,8374180 "/>
        <polygon id="86" class="fil87" points="6846700,9493010 6841060,9496770 6097530,8380430 6103170,8376680 "/>
        <polygon id="87" class="fil88" points="6842940,9495510 6837300,9499270 6093770,8382940 6099410,8379180 "/>
        <polygon id="88" class="fil89" points="6839180,9498020 6833540,9501770 6090010,8385440 6095650,8381690 "/>
        <polygon id="89" class="fil89" points="6835420,9500520 6829780,9504270 6086260,8387940 6091890,8384190 "/>
        <polygon id="90" class="fil90" points="6831660,9503020 6826030,9506780 6082500,8390450 6088130,8386690 "/>
        <polygon id="91" class="fil91" points="6827900,9505530 6822270,9509280 6078740,8392950 6084380,8389190 "/>
        <polygon id="92" class="fil92" points="6824150,9508030 6818510,9511780 6074980,8395450 6080620,8391700 "/>
        <polygon id="93" class="fil92" points="6820390,9510530 6814750,9514290 6071220,8397960 6076860,8394200 "/>
        <polygon id="94" class="fil93" points="6816630,9513040 6810990,9516790 6067460,8400460 6073100,8396700 "/>
        <polygon id="95" class="fil94" points="6812870,9515540 6807230,9519290 6063710,8402960 6069340,8399210 "/>
        <polygon id="96" class="fil94" points="6809110,9518040 6803480,9521800 6059950,8405460 6065590,8401710 "/>
        <polygon id="97" class="fil95" points="6805360,9520540 6799720,9524300 6056190,8407970 6061830,8404210 "/>
        <polygon id="98" class="fil95" points="6801600,9523050 6795960,9526800 6052430,8410470 6058070,8406720 "/>
        <polygon id="99" class="fil96" points="6797840,9525550 6792200,9529310 6048670,8412970 6054310,8409220 "/>
        <polygon id="100" class="fil97" points="6794080,9528050 6788440,9531810 6044920,8415480 6050550,8411720 "/>
        <polygon id="101" class="fil97" points="6790320,9530560 6784690,9534310 6041160,8417980 6046790,8414230 "/>
        <polygon id="102" class="fil98" points="6786560,9533060 6780930,9536820 6037400,8420480 6043040,8416730 "/>
        <polygon id="103" class="fil99" points="6782810,9535560 6777170,9539320 6033640,8422990 6039280,8419230 "/>
        <polygon id="104" class="fil99" points="6779050,9538070 6773410,9541820 6029880,8425490 6035520,8421740 "/>
        <polygon id="105" class="fil100" points="6775290,9540570 6769650,9544320 6026120,8427990 6031760,8424240 "/>
        <polygon id="106" class="fil100" points="6771530,9543070 6765890,9546830 6022370,8430500 6028000,8426740 "/>
        <polygon id="107" class="fil101" points="6767770,9545580 6762140,9549330 6018610,8433000 6024250,8429240 "/>
        <polygon id="108" class="fil102" points="6764010,9548080 6758380,9551830 6014850,8435500 6020490,8431750 "/>
        <polygon id="109" class="fil102" points="6760260,9550580 6754620,9554340 6011090,8438010 6016730,8434250 "/>
        <polygon id="110" class="fil103" points="6756500,9553090 6750860,9556840 6007330,8440510 6012970,8436750 "/>
        <polygon id="111" class="fil103" points="6752740,9555590 6747100,9559340 6003580,8443010 6009210,8439260 "/>
        <polygon id="112" class="fil104" points="6748980,9558090 6743340,9561850 5999820,8445510 6005450,8441760 "/>
        <polygon id="113" class="fil104" points="6745220,9560590 6739590,9564350 5996060,8448020 6001700,8444260 "/>
        <polygon id="114" class="fil105" points="6741470,9563100 6735830,9566850 5992300,8450520 5997940,8446770 "/>
        <polygon id="115" class="fil105" points="6737710,9565600 6732070,9569360 5988540,8453020 5994180,8449270 "/>
        <polygon id="116" class="fil106" points="6733950,9568100 6728310,9571860 5984780,8455530 5990420,8451770 "/>
        <polygon id="117" class="fil106" points="6730190,9570610 6724550,9574360 5981030,8458030 5986660,8454280 "/>
        <polygon id="118" class="fil107" points="6726430,9573110 6720800,9576870 5977270,8460530 5982910,8456780 "/>
        <polygon id="119" class="fil107" points="6722670,9575610 6717040,9579370 5973510,8463040 5979150,8459280 "/>
        <polygon id="120" class="fil108" points="6718920,9578120 6713280,9581870 5969750,8465540 5975390,8461790 "/>
        <polygon id="121" class="fil108" points="6715160,9580620 6709520,9584370 5965990,8468040 5971630,8464290 "/>
        <polygon id="122" class="fil109" points="6711400,9583120 6705760,9586880 5962240,8470550 5967870,8466790 "/>
        <polygon id="123" class="fil109" points="6707640,9585630 6702000,9589380 5958480,8473050 5964110,8469290 "/>
        <polygon id="124" class="fil110" points="6703880,9588130 6698250,9591880 5954720,8475550 5960360,8471800 "/>
        <polygon id="125" class="fil110" points="6700130,9590630 6694490,9594390 5950960,8478060 5956600,8474300 "/>
        <polygon id="126" class="fil111" points="6696370,9593140 6690730,9596890 5947200,8480560 5952840,8476800 "/>
        <polygon id="127" class="fil111" points="6692610,9595640 6686970,9599390 5943440,8483060 5949080,8479310 "/>
        <polygon id="128" class="fil112" points="6688850,9598140 6683210,9601900 5939690,8485560 5945320,8481810 "/>
        <polygon id="129" class="fil112" points="6685090,9600640 6679460,9604400 5935930,8488070 5941570,8484310 "/>
        <polygon id="130" class="fil113" points="6681330,9603150 6675700,9606900 5932170,8490570 5937810,8486820 "/>
        <polygon id="131" class="fil113" points="6677580,9605650 6671940,9609410 5928410,8493070 5934050,8489320 "/>
        <polygon id="132" class="fil114" points="6673820,9608150 6668180,9611910 5924650,8495580 5930290,8491820 "/>
        <polygon id="133" class="fil114" points="6670060,9610660 6664420,9614410 5920900,8498080 5926530,8494330 "/>
        <polygon id="134" class="fil115" points="6666300,9613160 6660660,9616920 5917140,8500580 5922770,8496830 "/>
        <polygon id="135" class="fil115" points="6662540,9615660 6656910,9619420 5913380,8503090 5919020,8499330 "/>
        <polygon id="136" class="fil116" points="6658790,9618170 6653150,9621920 5909620,8505590 5915260,8501840 "/>
        <polygon id="137" class="fil116" points="6655030,9620670 6649390,9624420 5905860,8508090 5911500,8504340 "/>
        <polygon id="138" class="fil116" points="6651270,9623170 6645630,9626930 5902100,8510600 5907740,8506840 "/>
        <polygon id="139" class="fil117" points="6647510,9625680 6641870,9629430 5898350,8513100 5903980,8509340 "/>
        <polygon id="140" class="fil117" points="6643750,9628180 6638120,9631930 5894590,8515600 5900230,8511850 "/>
        <polygon id="141" class="fil118" points="6639990,9630680 6634360,9634440 5890830,8518110 5896470,8514350 "/>
        <polygon id="142" class="fil118" points="6636240,9633190 6630600,9636940 5887070,8520610 5892710,8516850 "/>
        <polygon id="143" class="fil119" points="6632480,9635690 6626840,9639440 5883310,8523110 5888950,8519360 "/>
        <polygon id="144" class="fil119" points="6628720,9638190 6623080,9641950 5879560,8525610 5885190,8521860 "/>
        <polygon id="145" class="fil120" points="6624960,9640690 6619320,9644450 5875800,8528120 5881430,8524360 "/>
        <polygon id="146" class="fil121" points="6621200,9643200 6615570,9646950 5872040,8530620 5877680,8526870 "/>
        <polygon id="147" class="fil121" points="6617450,9645700 6611810,9649460 5868280,8533120 5873920,8529370 "/>
        <polygon id="148" class="fil122" points="6613690,9648200 6608050,9651960 5864520,8535630 5870160,8531870 "/>
        <polygon id="149" class="fil122" points="6609930,9650710 6604290,9654460 5860760,8538130 5866400,8534380 "/>
        <polygon id="150" class="fil122" points="6606170,9653210 6600530,9656970 5857010,8540630 5862640,8536880 "/>
        <polygon id="151" class="fil123" points="6602410,9655710 6596780,9659470 5853250,8543140 5858890,8539380 "/>
        <polygon id="152" class="fil123" points="6598650,9658220 6593020,9661970 5849490,8545640 5855130,8541890 "/>
        <polygon id="153" class="fil123" points="6594900,9660720 6589260,9664470 5845730,8548140 5851370,8544390 "/>
        <polygon id="154" class="fil124" points="6591140,9663220 6585500,9666980 5841970,8550650 5847610,8546890 "/>
        <polygon id="155" class="fil124" points="6587380,9665730 6581740,9669480 5838220,8553150 5843850,8549390 "/>
        <polygon id="156" class="fil125" points="6583620,9668230 6577980,9671980 5834460,8555650 5840090,8551900 "/>
        <polygon id="157" class="fil125" points="6579860,9670730 6574230,9674490 5830700,8558160 5836340,8554400 "/>
        <polygon id="158" class="fil125" points="6576110,9673240 6570470,9676990 5826940,8560660 5832580,8556900 "/>
        <polygon id="159" class="fil126" points="6572350,9675740 6566710,9679490 5823180,8563160 5828820,8559410 "/>
        <polygon id="160" class="fil126" points="6568590,9678240 6562950,9682000 5819420,8565660 5825060,8561910 "/>
        <polygon id="161" class="fil126" points="6564830,9680740 6559190,9684500 5815670,8568170 5821300,8564410 "/>
        <polygon id="162" class="fil127" points="6561070,9683250 6555440,9687000 5811910,8570670 5817540,8566920 "/>
        <polygon id="163" class="fil127" points="6557310,9685750 6551680,9689510 5808150,8573170 5813790,8569420 "/>
        <polygon id="164" class="fil127" points="6553560,9688250 6547920,9692010 5804390,8575680 5810030,8571920 "/>
        <polygon id="165" class="fil128" points="6549800,9690760 6544160,9694510 5800630,8578180 5806270,8574430 "/>
        <polygon id="166" class="fil128" points="6546040,9693260 6540400,9697020 5796870,8580680 5802510,8576930 "/>
        <polygon id="167" class="fil128" points="6542280,9695760 6536640,9699520 5793120,8583190 5798750,8579430 "/>
        <polygon id="168" class="fil129" points="6538520,9698270 6532890,9702020 5789360,8585690 5795000,8581940 "/>
        <polygon id="169" class="fil129" points="6534770,9700770 6529130,9704520 5785600,8588190 5791240,8584440 "/>
        <polygon id="170" class="fil129" points="6531010,9703270 6525370,9707030 5781840,8590700 5787480,8586940 "/>
        <polygon id="171" class="fil130" points="6527250,9705780 6521610,9709530 5778080,8593200 5783720,8589440 "/>
        <polygon id="172" class="fil130" points="6523490,9708280 6517850,9712030 5774330,8595700 5779960,8591950 "/>
        <polygon id="173" class="fil130" points="6519730,9710780 6514100,9714540 5770570,8598210 5776200,8594450 "/>
        <polygon id="174" class="fil131" points="6515970,9713290 6510340,9717040 5766810,8600710 5772450,8596950 "/>
        <polygon id="175" class="fil131" points="6512220,9715790 6506580,9719540 5763050,8603210 5768690,8599460 "/>
        <polygon id="176" class="fil131" points="6508460,9718290 6502820,9722050 5759290,8605710 5764930,8601960 "/>
        <polygon id="177" class="fil132" points="6504700,9720800 6499060,9724550 5755530,8608220 5761170,8604460 "/>
        <polygon id="178" class="fil132" points="6500940,9723300 6495300,9727050 5751780,8610720 5757410,8606970 "/>
        <polygon id="179" class="fil132" points="6497180,9725800 6491550,9729560 5748020,8613220 5753660,8609470 "/>
        <polygon id="180" class="fil133" points="6493430,9728300 6487790,9732060 5744260,8615730 5749900,8611970 "/>
        <polygon id="181" class="fil133" points="6489670,9730810 6484030,9734560 5740500,8618230 5746140,8614480 "/>
        <polygon id="182" class="fil133" points="6485910,9733310 6480270,9737070 5736740,8620730 5742380,8616980 "/>
        <polygon id="183" class="fil134" points="6482150,9735810 6476510,9739570 5732990,8623240 5738620,8619480 "/>
        <polygon id="184" class="fil134" points="6478390,9738320 6480850,9736680 5737320,8620350 5734860,8621990 "/>
    </g>
   </g>
            <g>
    <g style="clip-path:url(#id2)">
     <polygon class="fil6" points="3727430,4853780 3732540,4857190 2982150,5982970 2977040,5979570 "/>
        <polygon id="1" class="fil7" points="3730650,4855930 3736320,4859710 2985940,5985500 2980260,5981710 "/>
        <polygon id="2" class="fil8" points="3734430,4858450 3740110,4862230 2989720,5988020 2984040,5984240 "/>
        <polygon id="3" class="fil9" points="3738220,4860970 3743890,4864750 2993500,5990540 2987830,5986760 "/>
        <polygon id="4" class="fil10" points="3742000,4863490 3747670,4867270 2997290,5993060 2991610,5989280 "/>
        <polygon id="5" class="fil11" points="3745780,4866010 3751460,4869790 3001070,5995580 2995390,5991800 "/>
        <polygon id="6" class="fil12" points="3749560,4868530 3755240,4872320 3004850,5998100 2999180,5994320 "/>
        <polygon id="7" class="fil13" points="3753350,4871060 3759020,4874840 3008630,6000630 3002960,5996840 "/>
        <polygon id="8" class="fil14" points="3757130,4873580 3762810,4877360 3012420,6003150 3006740,5999370 "/>
        <polygon id="9" class="fil15" points="3760910,4876100 3766590,4879880 3016200,6005670 3010530,6001890 "/>
        <polygon id="10" class="fil16" points="3764700,4878620 3770370,4882400 3019980,6008190 3014310,6004410 "/>
        <polygon id="11" class="fil17" points="3768480,4881140 3774160,4884920 3023770,6010710 3018090,6006930 "/>
        <polygon id="12" class="fil18" points="3772260,4883660 3777940,4887450 3027550,6013240 3021880,6009450 "/>
        <polygon id="13" class="fil19" points="3776050,4886190 3781720,4889970 3031330,6015760 3025660,6011970 "/>
        <polygon id="14" class="fil20" points="3779830,4888710 3785510,4892490 3035120,6018280 3029440,6014500 "/>
        <polygon id="15" class="fil21" points="3783610,4891230 3789290,4895010 3038900,6020800 3033230,6017020 "/>
        <polygon id="16" class="fil22" points="3787400,4893750 3793070,4897530 3042680,6023320 3037010,6019540 "/>
        <polygon id="17" class="fil23" points="3791180,4896270 3796860,4900060 3046470,6025840 3040790,6022060 "/>
        <polygon id="18" class="fil24" points="3794960,4898790 3800640,4902580 3050250,6028370 3044580,6024580 "/>
        <polygon id="19" class="fil25" points="3798750,4901320 3804420,4905100 3054030,6030890 3048360,6027100 "/>
        <polygon id="20" class="fil26" points="3802530,4903840 3808210,4907620 3057820,6033410 3052140,6029630 "/>
        <polygon id="21" class="fil27" points="3806310,4906360 3811990,4910140 3061600,6035930 3055930,6032150 "/>
        <polygon id="22" class="fil28" points="3810100,4908880 3815770,4912660 3065380,6038450 3059710,6034670 "/>
        <polygon id="23" class="fil29" points="3813880,4911400 3819560,4915190 3069170,6040970 3063490,6037190 "/>
        <polygon id="24" class="fil30" points="3817660,4913920 3823340,4917710 3072950,6043500 3067280,6039710 "/>
        <polygon id="25" class="fil31" points="3821450,4916450 3827120,4920230 3076730,6046020 3071060,6042230 "/>
        <polygon id="26" class="fil32" points="3825230,4918970 3830900,4922750 3080520,6048540 3074840,6044760 "/>
        <polygon id="27" class="fil33" points="3829010,4921490 3834690,4925270 3084300,6051060 3078630,6047280 "/>
        <polygon id="28" class="fil34" points="3832800,4924010 3838470,4927790 3088080,6053580 3082410,6049800 "/>
        <polygon id="29" class="fil35" points="3836580,4926530 3842250,4930320 3091870,6056100 3086190,6052320 "/>
        <polygon id="30" class="fil36" points="3840360,4929050 3846040,4932840 3095650,6058630 3089970,6054840 "/>
        <polygon id="31" class="fil37" points="3844150,4931580 3849820,4935360 3099430,6061150 3093760,6057370 "/>
        <polygon id="32" class="fil38" points="3847930,4934100 3853600,4937880 3103220,6063670 3097540,6059890 "/>
        <polygon id="33" class="fil39" points="3851710,4936620 3857390,4940400 3107000,6066190 3101320,6062410 "/>
        <polygon id="34" class="fil40" points="3855500,4939140 3861170,4942920 3110780,6068710 3105110,6064930 "/>
        <polygon id="35" class="fil41" points="3859280,4941660 3864950,4945450 3114570,6071230 3108890,6067450 "/>
        <polygon id="36" class="fil42" points="3863060,4944190 3868740,4947970 3118350,6073760 3112670,6069970 "/>
        <polygon id="37" class="fil43" points="3866850,4946710 3872520,4950490 3122130,6076280 3116460,6072500 "/>
        <polygon id="38" class="fil44" points="3870630,4949230 3876300,4953010 3125920,6078800 3120240,6075020 "/>
        <polygon id="39" class="fil45" points="3874410,4951750 3880090,4955530 3129700,6081320 3124020,6077540 "/>
        <polygon id="40" class="fil46" points="3878200,4954270 3883870,4958050 3133480,6083840 3127810,6080060 "/>
        <polygon id="41" class="fil47" points="3881980,4956790 3887650,4960580 3137270,6086360 3131590,6082580 "/>
        <polygon id="42" class="fil48" points="3885760,4959320 3891440,4963100 3141050,6088890 3135370,6085100 "/>
        <polygon id="43" class="fil49" points="3889550,4961840 3895220,4965620 3144830,6091410 3139160,6087630 "/>
        <polygon id="44" class="fil50" points="3893330,4964360 3899000,4968140 3148620,6093930 3142940,6090150 "/>
        <polygon id="45" class="fil51" points="3897110,4966880 3902790,4970660 3152400,6096450 3146720,6092670 "/>
        <polygon id="46" class="fil52" points="3900900,4969400 3906570,4973180 3156180,6098970 3150510,6095190 "/>
        <polygon id="47" class="fil53" points="3904680,4971920 3910350,4975710 3159970,6101500 3154290,6097710 "/>
        <polygon id="48" class="fil54" points="3908460,4974450 3914140,4978230 3163750,6104020 3158070,6100230 "/>
        <polygon id="49" class="fil55" points="3912240,4976970 3917920,4980750 3167530,6106540 3161860,6102760 "/>
        <polygon id="50" class="fil56" points="3916030,4979490 3921700,4983270 3171310,6109060 3165640,6105280 "/>
        <polygon id="51" class="fil57" points="3919810,4982010 3925490,4985790 3175100,6111580 3169420,6107800 "/>
        <polygon id="52" class="fil58" points="3923590,4984530 3929270,4988320 3178880,6114100 3173210,6110320 "/>
        <polygon id="53" class="fil59" points="3927380,4987050 3933050,4990840 3182660,6116630 3176990,6112840 "/>
        <polygon id="54" class="fil60" points="3931160,4989580 3936840,4993360 3186450,6119150 3180770,6115360 "/>
        <polygon id="55" class="fil61" points="3934940,4992100 3940620,4995880 3190230,6121670 3184560,6117890 "/>
        <polygon id="56" class="fil62" points="3938730,4994620 3944400,4998400 3194010,6124190 3188340,6120410 "/>
        <polygon id="57" class="fil63" points="3942510,4997140 3948190,5000920 3197800,6126710 3192120,6122930 "/>
        <polygon id="58" class="fil64" points="3946290,4999660 3951970,5003450 3201580,6129230 3195910,6125450 "/>
        <polygon id="59" class="fil65" points="3950080,5002180 3955750,5005970 3205360,6131760 3199690,6127970 "/>
        <polygon id="60" class="fil66" points="3953860,5004710 3959540,5008490 3209150,6134280 3203470,6130490 "/>
        <polygon id="61" class="fil67" points="3957640,5007230 3963320,5011010 3212930,6136800 3207260,6133020 "/>
        <polygon id="62" class="fil68" points="3961430,5009750 3967100,5013530 3216710,6139320 3211040,6135540 "/>
        <polygon id="63" class="fil69" points="3965210,5012270 3970890,5016050 3220500,6141840 3214820,6138060 "/>
        <polygon id="64" class="fil70" points="3968990,5014790 3974670,5018580 3224280,6144360 3218610,6140580 "/>
        <polygon id="65" class="fil71" points="3972780,5017310 3978450,5021100 3228060,6146890 3222390,6143100 "/>
        <polygon id="66" class="fil72" points="3976560,5019840 3982240,5023620 3231850,6149410 3226170,6145620 "/>
        <polygon id="67" class="fil73" points="3980340,5022360 3986020,5026140 3235630,6151930 3229960,6148150 "/>
        <polygon id="68" class="fil74" points="3984130,5024880 3989800,5028660 3239410,6154450 3233740,6150670 "/>
        <polygon id="69" class="fil75" points="3987910,5027400 3993580,5031180 3243200,6156970 3237520,6153190 "/>
        <polygon id="70" class="fil75" points="3991690,5029920 3997370,5033710 3246980,6159490 3241310,6155710 "/>
        <polygon id="71" class="fil76" points="3995480,5032440 4001150,5036230 3250760,6162020 3245090,6158230 "/>
        <polygon id="72" class="fil77" points="3999260,5034970 4004930,5038750 3254550,6164540 3248870,6160760 "/>
        <polygon id="73" class="fil78" points="4003040,5037490 4008720,5041270 3258330,6167060 3252650,6163280 "/>
        <polygon id="74" class="fil79" points="4006830,5040010 4012500,5043790 3262110,6169580 3256440,6165800 "/>
        <polygon id="75" class="fil80" points="4010610,5042530 4016280,5046310 3265900,6172100 3260220,6168320 "/>
        <polygon id="76" class="fil80" points="4014390,5045050 4020070,5048840 3269680,6174620 3264000,6170840 "/>
        <polygon id="77" class="fil81" points="4018180,5047580 4023850,5051360 3273460,6177150 3267790,6173360 "/>
        <polygon id="78" class="fil82" points="4021960,5050100 4027630,5053880 3277250,6179670 3271570,6175890 "/>
        <polygon id="79" class="fil83" points="4025740,5052620 4031420,5056400 3281030,6182190 3275350,6178410 "/>
        <polygon id="80" class="fil84" points="4029530,5055140 4035200,5058920 3284810,6184710 3279140,6180930 "/>
        <polygon id="81" class="fil84" points="4033310,5057660 4038980,5061440 3288600,6187230 3282920,6183450 "/>
        <polygon id="82" class="fil85" points="4037090,5060180 4042770,5063970 3292380,6189750 3286700,6185970 "/>
        <polygon id="83" class="fil86" points="4040880,5062710 4046550,5066490 3296160,6192280 3290490,6188490 "/>
        <polygon id="84" class="fil87" points="4044660,5065230 4050330,5069010 3299950,6194800 3294270,6191020 "/>
        <polygon id="85" class="fil87" points="4048440,5067750 4054120,5071530 3303730,6197320 3298050,6193540 "/>
        <polygon id="86" class="fil88" points="4052230,5070270 4057900,5074050 3307510,6199840 3301840,6196060 "/>
        <polygon id="87" class="fil89" points="4056010,5072790 4061680,5076570 3311300,6202360 3305620,6198580 "/>
        <polygon id="88" class="fil89" points="4059790,5075310 4065470,5079100 3315080,6204890 3309400,6201100 "/>
        <polygon id="89" class="fil90" points="4063580,5077840 4069250,5081620 3318860,6207410 3313190,6203620 "/>
        <polygon id="90" class="fil91" points="4067360,5080360 4073030,5084140 3322650,6209930 3316970,6206150 "/>
        <polygon id="91" class="fil92" points="4071140,5082880 4076820,5086660 3326430,6212450 3320750,6208670 "/>
        <polygon id="92" class="fil92" points="4074930,5085400 4080600,5089180 3330210,6214970 3324540,6211190 "/>
        <polygon id="93" class="fil93" points="4078710,5087920 4084380,5091710 3334000,6217490 3328320,6213710 "/>
        <polygon id="94" class="fil94" points="4082490,5090440 4088170,5094230 3337780,6220020 3332100,6216230 "/>
        <polygon id="95" class="fil94" points="4086270,5092970 4091950,5096750 3341560,6222540 3335890,6218750 "/>
        <polygon id="96" class="fil95" points="4090060,5095490 4095730,5099270 3345340,6225060 3339670,6221280 "/>
        <polygon id="97" class="fil95" points="4093840,5098010 4099520,5101790 3349130,6227580 3343450,6223800 "/>
        <polygon id="98" class="fil96" points="4097620,5100530 4103300,5104310 3352910,6230100 3347240,6226320 "/>
        <polygon id="99" class="fil97" points="4101410,5103050 4107080,5106840 3356690,6232620 3351020,6228840 "/>
        <polygon id="100" class="fil97" points="4105190,5105570 4110870,5109360 3360480,6235150 3354800,6231360 "/>
        <polygon id="101" class="fil98" points="4108970,5108100 4114650,5111880 3364260,6237670 3358590,6233880 "/>
        <polygon id="102" class="fil99" points="4112760,5110620 4118430,5114400 3368040,6240190 3362370,6236410 "/>
        <polygon id="103" class="fil99" points="4116540,5113140 4122220,5116920 3371830,6242710 3366150,6238930 "/>
        <polygon id="104" class="fil100" points="4120320,5115660 4126000,5119440 3375610,6245230 3369940,6241450 "/>
        <polygon id="105" class="fil100" points="4124110,5118180 4129780,5121970 3379390,6247750 3373720,6243970 "/>
        <polygon id="106" class="fil101" points="4127890,5120700 4133570,5124490 3383180,6250280 3377500,6246490 "/>
        <polygon id="107" class="fil102" points="4131670,5123230 4137350,5127010 3386960,6252800 3381290,6249020 "/>
        <polygon id="108" class="fil102" points="4135460,5125750 4141130,5129530 3390740,6255320 3385070,6251540 "/>
        <polygon id="109" class="fil103" points="4139240,5128270 4144920,5132050 3394530,6257840 3388850,6254060 "/>
        <polygon id="110" class="fil103" points="4143020,5130790 4148700,5134570 3398310,6260360 3392640,6256580 "/>
        <polygon id="111" class="fil104" points="4146810,5133310 4152480,5137100 3402090,6262880 3396420,6259100 "/>
        <polygon id="112" class="fil104" points="4150590,5135840 4156270,5139620 3405880,6265410 3400200,6261620 "/>
        <polygon id="113" class="fil105" points="4154370,5138360 4160050,5142140 3409660,6267930 3403990,6264150 "/>
        <polygon id="114" class="fil105" points="4158160,5140880 4163830,5144660 3413440,6270450 3407770,6266670 "/>
        <polygon id="115" class="fil106" points="4161940,5143400 4167610,5147180 3417230,6272970 3411550,6269190 "/>
        <polygon id="116" class="fil106" points="4165720,5145920 4171400,5149700 3421010,6275490 3415340,6271710 "/>
        <polygon id="117" class="fil107" points="4169510,5148440 4175180,5152230 3424790,6278010 3419120,6274230 "/>
        <polygon id="118" class="fil107" points="4173290,5150970 4178960,5154750 3428580,6280540 3422900,6276750 "/>
        <polygon id="119" class="fil108" points="4177070,5153490 4182750,5157270 3432360,6283060 3426680,6279280 "/>
        <polygon id="120" class="fil108" points="4180860,5156010 4186530,5159790 3436140,6285580 3430470,6281800 "/>
        <polygon id="121" class="fil109" points="4184640,5158530 4190310,5162310 3439930,6288100 3434250,6284320 "/>
        <polygon id="122" class="fil109" points="4188420,5161050 4194100,5164830 3443710,6290620 3438030,6286840 "/>
        <polygon id="123" class="fil110" points="4192210,5163570 4197880,5167360 3447490,6293150 3441820,6289360 "/>
        <polygon id="124" class="fil110" points="4195990,5166100 4201660,5169880 3451280,6295670 3445600,6291880 "/>
        <polygon id="125" class="fil111" points="4199770,5168620 4205450,5172400 3455060,6298190 3449380,6294410 "/>
        <polygon id="126" class="fil111" points="4203560,5171140 4209230,5174920 3458840,6300710 3453170,6296930 "/>
        <polygon id="127" class="fil112" points="4207340,5173660 4213010,5177440 3462630,6303230 3456950,6299450 "/>
        <polygon id="128" class="fil112" points="4211120,5176180 4216800,5179960 3466410,6305750 3460730,6301970 "/>
        <polygon id="129" class="fil113" points="4214910,5178700 4220580,5182490 3470190,6308280 3464520,6304490 "/>
        <polygon id="130" class="fil113" points="4218690,5181230 4224360,5185010 3473980,6310800 3468300,6307010 "/>
        <polygon id="131" class="fil114" points="4222470,5183750 4228150,5187530 3477760,6313320 3472080,6309540 "/>
        <polygon id="132" class="fil114" points="4226260,5186270 4231930,5190050 3481540,6315840 3475870,6312060 "/>
        <polygon id="133" class="fil115" points="4230040,5188790 4235710,5192570 3485330,6318360 3479650,6314580 "/>
        <polygon id="134" class="fil115" points="4233820,5191310 4239500,5195100 3489110,6320880 3483430,6317100 "/>
        <polygon id="135" class="fil116" points="4237610,5193830 4243280,5197620 3492890,6323410 3487220,6319620 "/>
        <polygon id="136" class="fil116" points="4241390,5196360 4247060,5200140 3496680,6325930 3491000,6322140 "/>
        <polygon id="137" class="fil116" points="4245170,5198880 4250850,5202660 3500460,6328450 3494780,6324670 "/>
        <polygon id="138" class="fil117" points="4248950,5201400 4254630,5205180 3504240,6330970 3498570,6327190 "/>
        <polygon id="139" class="fil117" points="4252740,5203920 4258410,5207700 3508020,6333490 3502350,6329710 "/>
        <polygon id="140" class="fil118" points="4256520,5206440 4262200,5210230 3511810,6336010 3506130,6332230 "/>
        <polygon id="141" class="fil118" points="4260300,5208960 4265980,5212750 3515590,6338540 3509920,6334750 "/>
        <polygon id="142" class="fil119" points="4264090,5211490 4269760,5215270 3519370,6341060 3513700,6337270 "/>
        <polygon id="143" class="fil119" points="4267870,5214010 4273550,5217790 3523160,6343580 3517480,6339800 "/>
        <polygon id="144" class="fil120" points="4271650,5216530 4277330,5220310 3526940,6346100 3521270,6342320 "/>
        <polygon id="145" class="fil121" points="4275440,5219050 4281110,5222830 3530720,6348620 3525050,6344840 "/>
        <polygon id="146" class="fil121" points="4279220,5221570 4284900,5225360 3534510,6351140 3528830,6347360 "/>
        <polygon id="147" class="fil122" points="4283000,5224090 4288680,5227880 3538290,6353670 3532620,6349880 "/>
        <polygon id="148" class="fil122" points="4286790,5226620 4292460,5230400 3542070,6356190 3536400,6352410 "/>
        <polygon id="149" class="fil122" points="4290570,5229140 4296250,5232920 3545860,6358710 3540180,6354930 "/>
        <polygon id="150" class="fil123" points="4294350,5231660 4300030,5235440 3549640,6361230 3543970,6357450 "/>
        <polygon id="151" class="fil123" points="4298140,5234180 4303810,5237960 3553420,6363750 3547750,6359970 "/>
        <polygon id="152" class="fil123" points="4301920,5236700 4307600,5240490 3557210,6366270 3551530,6362490 "/>
        <polygon id="153" class="fil124" points="4305700,5239230 4311380,5243010 3560990,6368800 3555320,6365010 "/>
        <polygon id="154" class="fil124" points="4309490,5241750 4315160,5245530 3564770,6371320 3559100,6367540 "/>
        <polygon id="155" class="fil125" points="4313270,5244270 4318950,5248050 3568560,6373840 3562880,6370060 "/>
        <polygon id="156" class="fil125" points="4317050,5246790 4322730,5250570 3572340,6376360 3566670,6372580 "/>
        <polygon id="157" class="fil125" points="4320840,5249310 4326510,5253090 3576120,6378880 3570450,6375100 "/>
        <polygon id="158" class="fil126" points="4324620,5251830 4330290,5255620 3579910,6381400 3574230,6377620 "/>
        <polygon id="159" class="fil126" points="4328400,5254360 4334080,5258140 3583690,6383930 3578020,6380140 "/>
        <polygon id="160" class="fil126" points="4332190,5256880 4337860,5260660 3587470,6386450 3581800,6382670 "/>
        <polygon id="161" class="fil127" points="4335970,5259400 4341640,5263180 3591260,6388970 3585580,6385190 "/>
        <polygon id="162" class="fil127" points="4339750,5261920 4345430,5265700 3595040,6391490 3589360,6387710 "/>
        <polygon id="163" class="fil127" points="4343540,5264440 4349210,5268220 3598820,6394010 3593150,6390230 "/>
        <polygon id="164" class="fil128" points="4347320,5266960 4352990,5270750 3602610,6396540 3596930,6392750 "/>
        <polygon id="165" class="fil128" points="4351100,5269490 4356780,5273270 3606390,6399060 3600710,6395270 "/>
        <polygon id="166" class="fil128" points="4354890,5272010 4360560,5275790 3610170,6401580 3604500,6397800 "/>
        <polygon id="167" class="fil129" points="4358670,5274530 4364340,5278310 3613960,6404100 3608280,6400320 "/>
        <polygon id="168" class="fil129" points="4362450,5277050 4368130,5280830 3617740,6406620 3612060,6402840 "/>
        <polygon id="169" class="fil129" points="4366240,5279570 4371910,5283360 3621520,6409140 3615850,6405360 "/>
        <polygon id="170" class="fil130" points="4370020,5282090 4375690,5285880 3625310,6411670 3619630,6407880 "/>
        <polygon id="171" class="fil130" points="4373800,5284620 4379480,5288400 3629090,6414190 3623410,6410400 "/>
        <polygon id="172" class="fil130" points="4377590,5287140 4383260,5290920 3632870,6416710 3627200,6412930 "/>
        <polygon id="173" class="fil131" points="4381370,5289660 4387040,5293440 3636660,6419230 3630980,6415450 "/>
        <polygon id="174" class="fil131" points="4385150,5292180 4390830,5295960 3640440,6421750 3634760,6417970 "/>
        <polygon id="175" class="fil131" points="4388940,5294700 4394610,5298490 3644220,6424270 3638550,6420490 "/>
        <polygon id="176" class="fil132" points="4392720,5297220 4398390,5301010 3648010,6426800 3642330,6423010 "/>
        <polygon id="177" class="fil132" points="4396500,5299750 4402180,5303530 3651790,6429320 3646110,6425530 "/>
        <polygon id="178" class="fil132" points="4400290,5302270 4405960,5306050 3655570,6431840 3649900,6428060 "/>
        <polygon id="179" class="fil133" points="4404070,5304790 4409740,5308570 3659360,6434360 3653680,6430580 "/>
        <polygon id="180" class="fil133" points="4407850,5307310 4413530,5311090 3663140,6436880 3657460,6433100 "/>
        <polygon id="181" class="fil133" points="4411640,5309830 4417310,5313620 3666920,6439400 3661250,6435620 "/>
        <polygon id="182" class="fil134" points="4415420,5312350 4414620,5311820 3664230,6437610 3665030,6438140 "/>
    </g>
   </g>
            <g>
    <g style="clip-path:url(#id3)">
     <polygon class="fil6" points="10840850,5979150 10835740,5982550 10085350,4856770 10090460,4853360 "/>
        <polygon id="1" class="fil7" points="10837630,5981290 10831950,5985080 10081570,4859290 10087240,4855510 "/>
        <polygon id="2" class="fil8" points="10833850,5983820 10828170,5987600 10077780,4861810 10083460,4858030 "/>
        <polygon id="3" class="fil9" points="10830060,5986340 10824390,5990120 10074000,4864330 10079670,4860550 "/>
        <polygon id="4" class="fil10" points="10826280,5988860 10820600,5992640 10070220,4866850 10075890,4863070 "/>
        <polygon id="5" class="fil11" points="10822500,5991380 10816820,5995160 10066430,4869370 10072110,4865590 "/>
        <polygon id="6" class="fil12" points="10818710,5993900 10813040,5997680 10062650,4871900 10068330,4868110 "/>
        <polygon id="7" class="fil13" points="10814930,5996420 10809260,6000210 10058870,4874420 10064540,4870640 "/>
        <polygon id="8" class="fil14" points="10811150,5998950 10805470,6002730 10055080,4876940 10060760,4873160 "/>
        <polygon id="9" class="fil15" points="10807360,6001470 10801690,6005250 10051300,4879460 10056980,4875680 "/>
        <polygon id="10" class="fil16" points="10803580,6003990 10797910,6007770 10047520,4881980 10053190,4878200 "/>
        <polygon id="11" class="fil17" points="10799800,6006510 10794120,6010290 10043730,4884500 10049410,4880720 "/>
        <polygon id="12" class="fil18" points="10796010,6009030 10790340,6012820 10039950,4887030 10045630,4883240 "/>
        <polygon id="13" class="fil19" points="10792230,6011550 10786560,6015340 10036170,4889550 10041840,4885770 "/>
        <polygon id="14" class="fil20" points="10788450,6014080 10782770,6017860 10032380,4892070 10038060,4888290 "/>
        <polygon id="15" class="fil21" points="10784660,6016600 10778990,6020380 10028600,4894590 10034280,4890810 "/>
        <polygon id="16" class="fil22" points="10780880,6019120 10775210,6022900 10024820,4897110 10030490,4893330 "/>
        <polygon id="17" class="fil23" points="10777100,6021640 10771420,6025420 10021030,4899640 10026710,4895850 "/>
        <polygon id="18" class="fil24" points="10773310,6024160 10767640,6027950 10017250,4902160 10022930,4898370 "/>
        <polygon id="19" class="fil25" points="10769530,6026680 10763860,6030470 10013470,4904680 10019140,4900900 "/>
        <polygon id="20" class="fil26" points="10765750,6029210 10760070,6032990 10009680,4907200 10015360,4903420 "/>
        <polygon id="21" class="fil27" points="10761960,6031730 10756290,6035510 10005900,4909720 10011580,4905940 "/>
        <polygon id="22" class="fil28" points="10758180,6034250 10752510,6038030 10002120,4912240 10007790,4908460 "/>
        <polygon id="23" class="fil29" points="10754400,6036770 10748720,6040550 9998330,4914770 10004010,4910980 "/>
        <polygon id="24" class="fil30" points="10750610,6039290 10744940,6043080 9994550,4917290 10000230,4913500 "/>
        <polygon id="25" class="fil31" points="10746830,6041810 10741160,6045600 9990770,4919810 9996440,4916030 "/>
        <polygon id="26" class="fil32" points="10743050,6044340 10737370,6048120 9986990,4922330 9992660,4918550 "/>
        <polygon id="27" class="fil33" points="10739260,6046860 10733590,6050640 9983200,4924850 9988880,4921070 "/>
        <polygon id="28" class="fil34" points="10735480,6049380 10729810,6053160 9979420,4927370 9985090,4923590 "/>
        <polygon id="29" class="fil35" points="10731700,6051900 10726020,6055680 9975640,4929900 9981310,4926110 "/>
        <polygon id="30" class="fil36" points="10727920,6054420 10722240,6058210 9971850,4932420 9977530,4928630 "/>
        <polygon id="31" class="fil37" points="10724130,6056950 10718460,6060730 9968070,4934940 9973740,4931160 "/>
        <polygon id="32" class="fil38" points="10720350,6059470 10714670,6063250 9964290,4937460 9969960,4933680 "/>
        <polygon id="33" class="fil39" points="10716570,6061990 10710890,6065770 9960500,4939980 9966180,4936200 "/>
        <polygon id="34" class="fil40" points="10712780,6064510 10707110,6068290 9956720,4942500 9962390,4938720 "/>
        <polygon id="35" class="fil41" points="10709000,6067030 10703320,6070810 9952940,4945030 9958610,4941240 "/>
        <polygon id="36" class="fil42" points="10705220,6069550 10699540,6073340 9949150,4947550 9954830,4943770 "/>
        <polygon id="37" class="fil43" points="10701430,6072080 10695760,6075860 9945370,4950070 9951040,4946290 "/>
        <polygon id="38" class="fil44" points="10697650,6074600 10691970,6078380 9941590,4952590 9947260,4948810 "/>
        <polygon id="39" class="fil45" points="10693870,6077120 10688190,6080900 9937800,4955110 9943480,4951330 "/>
        <polygon id="40" class="fil46" points="10690080,6079640 10684410,6083420 9934020,4957630 9939690,4953850 "/>
        <polygon id="41" class="fil47" points="10686300,6082160 10680620,6085940 9930240,4960160 9935910,4956370 "/>
        <polygon id="42" class="fil48" points="10682520,6084680 10676840,6088470 9926450,4962680 9932130,4958900 "/>
        <polygon id="43" class="fil49" points="10678730,6087210 10673060,6090990 9922670,4965200 9928340,4961420 "/>
        <polygon id="44" class="fil50" points="10674950,6089730 10669270,6093510 9918890,4967720 9924560,4963940 "/>
        <polygon id="45" class="fil51" points="10671170,6092250 10665490,6096030 9915100,4970240 9920780,4966460 "/>
        <polygon id="46" class="fil52" points="10667380,6094770 10661710,6098550 9911320,4972760 9916990,4968980 "/>
        <polygon id="47" class="fil53" points="10663600,6097290 10657920,6101080 9907540,4975290 9913210,4971500 "/>
        <polygon id="48" class="fil54" points="10659820,6099810 10654140,6103600 9903750,4977810 9909430,4974030 "/>
        <polygon id="49" class="fil55" points="10656030,6102340 10650360,6106120 9899970,4980330 9905650,4976550 "/>
        <polygon id="50" class="fil56" points="10652250,6104860 10646580,6108640 9896190,4982850 9901860,4979070 "/>
        <polygon id="51" class="fil57" points="10648470,6107380 10642790,6111160 9892400,4985370 9898080,4981590 "/>
        <polygon id="52" class="fil58" points="10644680,6109900 10639010,6113680 9888620,4987900 9894300,4984110 "/>
        <polygon id="53" class="fil59" points="10640900,6112420 10635230,6116210 9884840,4990420 9890510,4986630 "/>
        <polygon id="54" class="fil60" points="10637120,6114940 10631440,6118730 9881050,4992940 9886730,4989160 "/>
        <polygon id="55" class="fil61" points="10633330,6117470 10627660,6121250 9877270,4995460 9882950,4991680 "/>
        <polygon id="56" class="fil62" points="10629550,6119990 10623880,6123770 9873490,4997980 9879160,4994200 "/>
        <polygon id="57" class="fil63" points="10625770,6122510 10620090,6126290 9869700,5000500 9875380,4996720 "/>
        <polygon id="58" class="fil64" points="10621980,6125030 10616310,6128810 9865920,5003030 9871600,4999240 "/>
        <polygon id="59" class="fil65" points="10618200,6127550 10612530,6131340 9862140,5005550 9867810,5001760 "/>
        <polygon id="60" class="fil66" points="10614420,6130070 10608740,6133860 9858350,5008070 9864030,5004290 "/>
        <polygon id="61" class="fil67" points="10610630,6132600 10604960,6136380 9854570,5010590 9860250,5006810 "/>
        <polygon id="62" class="fil68" points="10606850,6135120 10601180,6138900 9850790,5013110 9856460,5009330 "/>
        <polygon id="63" class="fil69" points="10603070,6137640 10597390,6141420 9847000,5015630 9852680,5011850 "/>
        <polygon id="64" class="fil70" points="10599280,6140160 10593610,6143940 9843220,5018160 9848900,5014370 "/>
        <polygon id="65" class="fil71" points="10595500,6142680 10589830,6146470 9839440,5020680 9845110,5016890 "/>
        <polygon id="66" class="fil72" points="10591720,6145200 10586040,6148990 9835650,5023200 9841330,5019420 "/>
        <polygon id="67" class="fil73" points="10587930,6147730 10582260,6151510 9831870,5025720 9837550,5021940 "/>
        <polygon id="68" class="fil74" points="10584150,6150250 10578480,6154030 9828090,5028240 9833760,5024460 "/>
        <polygon id="69" class="fil75" points="10580370,6152770 10574690,6156550 9824310,5030760 9829980,5026980 "/>
        <polygon id="70" class="fil75" points="10576580,6155290 10570910,6159070 9820520,5033290 9826200,5029500 "/>
        <polygon id="71" class="fil76" points="10572800,6157810 10567130,6161600 9816740,5035810 9822410,5032020 "/>
        <polygon id="72" class="fil77" points="10569020,6160340 10563340,6164120 9812960,5038330 9818630,5034550 "/>
        <polygon id="73" class="fil78" points="10565240,6162860 10559560,6166640 9809170,5040850 9814850,5037070 "/>
        <polygon id="74" class="fil79" points="10561450,6165380 10555780,6169160 9805390,5043370 9811060,5039590 "/>
        <polygon id="75" class="fil80" points="10557670,6167900 10551990,6171680 9801610,5045890 9807280,5042110 "/>
        <polygon id="76" class="fil80" points="10553890,6170420 10548210,6174200 9797820,5048420 9803500,5044630 "/>
        <polygon id="77" class="fil81" points="10550100,6172940 10544430,6176730 9794040,5050940 9799710,5047160 "/>
        <polygon id="78" class="fil82" points="10546320,6175470 10540640,6179250 9790260,5053460 9795930,5049680 "/>
        <polygon id="79" class="fil83" points="10542540,6177990 10536860,6181770 9786470,5055980 9792150,5052200 "/>
        <polygon id="80" class="fil84" points="10538750,6180510 10533080,6184290 9782690,5058500 9788360,5054720 "/>
        <polygon id="81" class="fil84" points="10534970,6183030 10529290,6186810 9778910,5061020 9784580,5057240 "/>
        <polygon id="82" class="fil85" points="10531190,6185550 10525510,6189330 9775120,5063550 9780800,5059760 "/>
        <polygon id="83" class="fil86" points="10527400,6188070 10521730,6191860 9771340,5066070 9777010,5062290 "/>
        <polygon id="84" class="fil87" points="10523620,6190600 10517940,6194380 9767560,5068590 9773230,5064810 "/>
        <polygon id="85" class="fil87" points="10519840,6193120 10514160,6196900 9763770,5071110 9769450,5067330 "/>
        <polygon id="86" class="fil88" points="10516050,6195640 10510380,6199420 9759990,5073630 9765660,5069850 "/>
        <polygon id="87" class="fil89" points="10512270,6198160 10506590,6201940 9756210,5076150 9761880,5072370 "/>
        <polygon id="88" class="fil89" points="10508490,6200680 10502810,6204470 9752420,5078680 9758100,5074890 "/>
        <polygon id="89" class="fil90" points="10504700,6203200 10499030,6206990 9748640,5081200 9754310,5077420 "/>
        <polygon id="90" class="fil91" points="10500920,6205730 10495240,6209510 9744860,5083720 9750530,5079940 "/>
        <polygon id="91" class="fil92" points="10497140,6208250 10491460,6212030 9741070,5086240 9746750,5082460 "/>
        <polygon id="92" class="fil92" points="10493350,6210770 10487680,6214550 9737290,5088760 9742960,5084980 "/>
        <polygon id="93" class="fil93" points="10489570,6213290 10483890,6217070 9733510,5091290 9739180,5087500 "/>
        <polygon id="94" class="fil94" points="10485790,6215810 10480110,6219600 9729720,5093810 9735400,5090020 "/>
        <polygon id="95" class="fil94" points="10482000,6218330 10476330,6222120 9725940,5096330 9731620,5092550 "/>
        <polygon id="96" class="fil95" points="10478220,6220860 10472550,6224640 9722160,5098850 9727830,5095070 "/>
        <polygon id="97" class="fil95" points="10474440,6223380 10468760,6227160 9718370,5101370 9724050,5097590 "/>
        <polygon id="98" class="fil96" points="10470650,6225900 10464980,6229680 9714590,5103890 9720270,5100110 "/>
        <polygon id="99" class="fil97" points="10466870,6228420 10461200,6232200 9710810,5106420 9716480,5102630 "/>
        <polygon id="100" class="fil97" points="10463090,6230940 10457410,6234730 9707020,5108940 9712700,5105150 "/>
        <polygon id="101" class="fil98" points="10459300,6233460 10453630,6237250 9703240,5111460 9708920,5107680 "/>
        <polygon id="102" class="fil99" points="10455520,6235990 10449850,6239770 9699460,5113980 9705130,5110200 "/>
        <polygon id="103" class="fil99" points="10451740,6238510 10446060,6242290 9695670,5116500 9701350,5112720 "/>
        <polygon id="104" class="fil100" points="10447950,6241030 10442280,6244810 9691890,5119020 9697570,5115240 "/>
        <polygon id="105" class="fil100" points="10444170,6243550 10438500,6247330 9688110,5121550 9693780,5117760 "/>
        <polygon id="106" class="fil101" points="10440390,6246070 10434710,6249860 9684320,5124070 9690000,5120280 "/>
        <polygon id="107" class="fil102" points="10436600,6248600 10430930,6252380 9680540,5126590 9686220,5122810 "/>
        <polygon id="108" class="fil102" points="10432820,6251120 10427150,6254900 9676760,5129110 9682430,5125330 "/>
        <polygon id="109" class="fil103" points="10429040,6253640 10423360,6257420 9672970,5131630 9678650,5127850 "/>
        <polygon id="110" class="fil103" points="10425250,6256160 10419580,6259940 9669190,5134150 9674870,5130370 "/>
        <polygon id="111" class="fil104" points="10421470,6258680 10415800,6262460 9665410,5136680 9671080,5132890 "/>
        <polygon id="112" class="fil104" points="10417690,6261200 10412010,6264990 9661620,5139200 9667300,5135420 "/>
        <polygon id="113" class="fil105" points="10413900,6263730 10408230,6267510 9657840,5141720 9663520,5137940 "/>
        <polygon id="114" class="fil105" points="10410120,6266250 10404450,6270030 9654060,5144240 9659730,5140460 "/>
        <polygon id="115" class="fil106" points="10406340,6268770 10400660,6272550 9650280,5146760 9655950,5142980 "/>
        <polygon id="116" class="fil106" points="10402550,6271290 10396880,6275070 9646490,5149280 9652170,5145500 "/>
        <polygon id="117" class="fil107" points="10398770,6273810 10393100,6277590 9642710,5151810 9648380,5148020 "/>
        <polygon id="118" class="fil107" points="10394990,6276330 10389310,6280120 9638930,5154330 9644600,5150550 "/>
        <polygon id="119" class="fil108" points="10391210,6278860 10385530,6282640 9635140,5156850 9640820,5153070 "/>
        <polygon id="120" class="fil108" points="10387420,6281380 10381750,6285160 9631360,5159370 9637030,5155590 "/>
        <polygon id="121" class="fil109" points="10383640,6283900 10377960,6287680 9627580,5161890 9633250,5158110 "/>
        <polygon id="122" class="fil109" points="10379860,6286420 10374180,6290200 9623790,5164410 9629470,5160630 "/>
        <polygon id="123" class="fil110" points="10376070,6288940 10370400,6292730 9620010,5166940 9625680,5163150 "/>
        <polygon id="124" class="fil110" points="10372290,6291460 10366610,6295250 9616230,5169460 9621900,5165680 "/>
        <polygon id="125" class="fil111" points="10368510,6293990 10362830,6297770 9612440,5171980 9618120,5168200 "/>
        <polygon id="126" class="fil111" points="10364720,6296510 10359050,6300290 9608660,5174500 9614330,5170720 "/>
        <polygon id="127" class="fil112" points="10360940,6299030 10355260,6302810 9604880,5177020 9610550,5173240 "/>
        <polygon id="128" class="fil112" points="10357160,6301550 10351480,6305330 9601090,5179540 9606770,5175760 "/>
        <polygon id="129" class="fil113" points="10353370,6304070 10347700,6307860 9597310,5182070 9602980,5178280 "/>
        <polygon id="130" class="fil113" points="10349590,6306590 10343910,6310380 9593530,5184590 9599200,5180810 "/>
        <polygon id="131" class="fil114" points="10345810,6309120 10340130,6312900 9589740,5187110 9595420,5183330 "/>
        <polygon id="132" class="fil114" points="10342020,6311640 10336350,6315420 9585960,5189630 9591630,5185850 "/>
        <polygon id="133" class="fil115" points="10338240,6314160 10332560,6317940 9582180,5192150 9587850,5188370 "/>
        <polygon id="134" class="fil115" points="10334460,6316680 10328780,6320460 9578390,5194680 9584070,5190890 "/>
        <polygon id="135" class="fil116" points="10330670,6319200 10325000,6322990 9574610,5197200 9580280,5193410 "/>
        <polygon id="136" class="fil116" points="10326890,6321720 10321210,6325510 9570830,5199720 9576500,5195940 "/>
        <polygon id="137" class="fil116" points="10323110,6324250 10317430,6328030 9567040,5202240 9572720,5198460 "/>
        <polygon id="138" class="fil117" points="10319320,6326770 10313650,6330550 9563260,5204760 9568940,5200980 "/>
        <polygon id="139" class="fil117" points="10315540,6329290 10309870,6333070 9559480,5207280 9565150,5203500 "/>
        <polygon id="140" class="fil118" points="10311760,6331810 10306080,6335590 9555690,5209810 9561370,5206020 "/>
        <polygon id="141" class="fil118" points="10307970,6334330 10302300,6338120 9551910,5212330 9557590,5208540 "/>
        <polygon id="142" class="fil119" points="10304190,6336850 10298520,6340640 9548130,5214850 9553800,5211070 "/>
        <polygon id="143" class="fil119" points="10300410,6339380 10294730,6343160 9544340,5217370 9550020,5213590 "/>
        <polygon id="144" class="fil120" points="10296620,6341900 10290950,6345680 9540560,5219890 9546240,5216110 "/>
        <polygon id="145" class="fil121" points="10292840,6344420 10287170,6348200 9536780,5222410 9542450,5218630 "/>
        <polygon id="146" class="fil121" points="10289060,6346940 10283380,6350720 9532990,5224940 9538670,5221150 "/>
        <polygon id="147" class="fil122" points="10285270,6349460 10279600,6353250 9529210,5227460 9534890,5223670 "/>
        <polygon id="148" class="fil122" points="10281490,6351990 10275820,6355770 9525430,5229980 9531100,5226200 "/>
        <polygon id="149" class="fil122" points="10277710,6354510 10272030,6358290 9521640,5232500 9527320,5228720 "/>
        <polygon id="150" class="fil123" points="10273920,6357030 10268250,6360810 9517860,5235020 9523540,5231240 "/>
        <polygon id="151" class="fil123" points="10270140,6359550 10264470,6363330 9514080,5237540 9519750,5233760 "/>
        <polygon id="152" class="fil123" points="10266360,6362070 10260680,6365850 9510290,5240070 9515970,5236280 "/>
        <polygon id="153" class="fil124" points="10262570,6364590 10256900,6368380 9506510,5242590 9512190,5238810 "/>
        <polygon id="154" class="fil124" points="10258790,6367120 10253120,6370900 9502730,5245110 9508400,5241330 "/>
        <polygon id="155" class="fil125" points="10255010,6369640 10249330,6373420 9498940,5247630 9504620,5243850 "/>
        <polygon id="156" class="fil125" points="10251220,6372160 10245550,6375940 9495160,5250150 9500840,5246370 "/>
        <polygon id="157" class="fil125" points="10247440,6374680 10241770,6378460 9491380,5252670 9497050,5248890 "/>
        <polygon id="158" class="fil126" points="10243660,6377200 10237980,6380980 9487600,5255200 9493270,5251410 "/>
        <polygon id="159" class="fil126" points="10239870,6379720 10234200,6383510 9483810,5257720 9489490,5253940 "/>
        <polygon id="160" class="fil126" points="10236090,6382250 10230420,6386030 9480030,5260240 9485700,5256460 "/>
        <polygon id="161" class="fil127" points="10232310,6384770 10226630,6388550 9476250,5262760 9481920,5258980 "/>
        <polygon id="162" class="fil127" points="10228530,6387290 10222850,6391070 9472460,5265280 9478140,5261500 "/>
        <polygon id="163" class="fil127" points="10224740,6389810 10219070,6393590 9468680,5267800 9474350,5264020 "/>
        <polygon id="164" class="fil128" points="10220960,6392330 10215280,6396120 9464900,5270330 9470570,5266540 "/>
        <polygon id="165" class="fil128" points="10217180,6394850 10211500,6398640 9461110,5272850 9466790,5269070 "/>
        <polygon id="166" class="fil128" points="10213390,6397380 10207720,6401160 9457330,5275370 9463000,5271590 "/>
        <polygon id="167" class="fil129" points="10209610,6399900 10203930,6403680 9453550,5277890 9459220,5274110 "/>
        <polygon id="168" class="fil129" points="10205830,6402420 10200150,6406200 9449760,5280410 9455440,5276630 "/>
        <polygon id="169" class="fil129" points="10202040,6404940 10196370,6408720 9445980,5282940 9451650,5279150 "/>
        <polygon id="170" class="fil130" points="10198260,6407460 10192580,6411250 9442200,5285460 9447870,5281670 "/>
        <polygon id="171" class="fil130" points="10194480,6409980 10188800,6413770 9438410,5287980 9444090,5284200 "/>
        <polygon id="172" class="fil130" points="10190690,6412510 10185020,6416290 9434630,5290500 9440300,5286720 "/>
        <polygon id="173" class="fil131" points="10186910,6415030 10181230,6418810 9430850,5293020 9436520,5289240 "/>
        <polygon id="174" class="fil131" points="10183130,6417550 10177450,6421330 9427060,5295540 9432740,5291760 "/>
        <polygon id="175" class="fil131" points="10179340,6420070 10173670,6423850 9423280,5298070 9428950,5294280 "/>
        <polygon id="176" class="fil132" points="10175560,6422590 10169880,6426380 9419500,5300590 9425170,5296800 "/>
        <polygon id="177" class="fil132" points="10171780,6425110 10166100,6428900 9415710,5303110 9421390,5299330 "/>
        <polygon id="178" class="fil132" points="10167990,6427640 10162320,6431420 9411930,5305630 9417600,5301850 "/>
        <polygon id="179" class="fil133" points="10164210,6430160 10158530,6433940 9408150,5308150 9413820,5304370 "/>
        <polygon id="180" class="fil133" points="10160430,6432680 10154750,6436460 9404360,5310670 9410040,5306890 "/>
        <polygon id="181" class="fil133" points="10156640,6435200 10150970,6438980 9400580,5313200 9406250,5309410 "/>
        <polygon id="182" class="fil134" points="10152860,6437720 10153660,6437190 9403270,5311400 9402470,5311930 "/>
    </g>
   </g>
  </g>
 </g>
</svg>
